<svg width="15" height="15" viewBox="0 0 15 15" fill="none" xmlns="http://www.w3.org/2000/svg">
<path d="M2.10001 0.600006V14.4H12.9V0.600006H2.10001ZM2.70001 1.20001H12.3V13.8H2.70001V1.20001ZM5.22188 2.40001C4.56798 2.41173 4.5129 2.91446 4.64063 3.40313C4.64063 3.40313 4.57149 3.47462 4.57501 3.57188C4.58204 3.75587 4.70626 3.81563 4.70626 3.81563C4.72969 3.98673 4.87735 4.14376 4.93126 4.17188C4.93126 4.28087 4.9418 4.36173 4.93126 4.48126C4.80235 4.8293 3.93985 4.72852 3.90001 5.40001H6.56251C6.52266 4.72852 5.66133 4.8293 5.53126 4.48126C5.52071 4.36173 5.53126 4.28087 5.53126 4.17188C5.60508 4.13673 5.73165 3.98907 5.75626 3.81563C5.75626 3.81563 5.88751 3.73594 5.88751 3.60001C5.88751 3.50508 5.84766 3.42891 5.82188 3.40313C5.89102 3.19571 6.01407 2.56876 5.55938 2.56876C5.51016 2.48321 5.38594 2.40001 5.22188 2.40001ZM8.31563 3.00001C8.1504 3.02344 8.03438 3.17696 8.05782 3.34219C8.08126 3.50743 8.23477 3.62344 8.40001 3.60001H10.8C10.9078 3.60118 11.0086 3.54493 11.0637 3.45118C11.1176 3.35743 11.1176 3.24258 11.0637 3.14883C11.0086 3.05508 10.9078 2.99883 10.8 3.00001H8.40001C8.39063 3.00001 8.38126 3.00001 8.37188 3.00001C8.36251 3.00001 8.35313 3.00001 8.34376 3.00001C8.33438 3.00001 8.32501 3.00001 8.31563 3.00001ZM8.31563 4.50001C8.1504 4.52344 8.03438 4.67696 8.05782 4.84219C8.08126 5.00743 8.23477 5.12344 8.40001 5.10001H10.8C10.9078 5.10118 11.0086 5.04493 11.0637 4.95118C11.1176 4.85743 11.1176 4.74258 11.0637 4.64883C11.0086 4.55508 10.9078 4.49883 10.8 4.50001H8.40001C8.39063 4.50001 8.38126 4.50001 8.37188 4.50001C8.36251 4.50001 8.35313 4.50001 8.34376 4.50001C8.33438 4.50001 8.32501 4.50001 8.31563 4.50001ZM4.11563 7.50001C3.9504 7.52344 3.83438 7.67696 3.85782 7.84219C3.88126 8.00743 4.03477 8.12344 4.20001 8.10001H8.40001C8.50782 8.10118 8.6086 8.04493 8.66368 7.95118C8.71758 7.85743 8.71758 7.74258 8.66368 7.64883C8.6086 7.55508 8.50782 7.49883 8.40001 7.50001H4.20001C4.19063 7.50001 4.18126 7.50001 4.17188 7.50001C4.16251 7.50001 4.15313 7.50001 4.14376 7.50001C4.13438 7.50001 4.12501 7.50001 4.11563 7.50001ZM9.81563 7.50001C9.6504 7.52344 9.53438 7.67696 9.55782 7.84219C9.58126 8.00743 9.73477 8.12344 9.90001 8.10001H10.8C10.9078 8.10118 11.0086 8.04493 11.0637 7.95118C11.1176 7.85743 11.1176 7.74258 11.0637 7.64883C11.0086 7.55508 10.9078 7.49883 10.8 7.50001H9.90001C9.89063 7.50001 9.88126 7.50001 9.87188 7.50001C9.86251 7.50001 9.85313 7.50001 9.84376 7.50001C9.83438 7.50001 9.82501 7.50001 9.81563 7.50001ZM4.11563 9.30001C3.9504 9.32344 3.83438 9.47696 3.85782 9.64219C3.88126 9.80743 4.03477 9.92344 4.20001 9.90001H7.50001C7.60782 9.90118 7.7086 9.84493 7.76368 9.75118C7.81758 9.65743 7.81758 9.54258 7.76368 9.44883C7.7086 9.35508 7.60782 9.29883 7.50001 9.30001H4.20001C4.19063 9.30001 4.18126 9.30001 4.17188 9.30001C4.16251 9.30001 4.15313 9.30001 4.14376 9.30001C4.13438 9.30001 4.12501 9.30001 4.11563 9.30001ZM9.81563 9.30001C9.6504 9.32344 9.53438 9.47696 9.55782 9.64219C9.58126 9.80743 9.73477 9.92344 9.90001 9.90001H10.8C10.9078 9.90118 11.0086 9.84493 11.0637 9.75118C11.1176 9.65743 11.1176 9.54258 11.0637 9.44883C11.0086 9.35508 10.9078 9.29883 10.8 9.30001H9.90001C9.89063 9.30001 9.88126 9.30001 9.87188 9.30001C9.86251 9.30001 9.85313 9.30001 9.84376 9.30001C9.83438 9.30001 9.82501 9.30001 9.81563 9.30001ZM4.11563 11.1C3.9504 11.1234 3.83438 11.277 3.85782 11.4422C3.88126 11.6074 4.03477 11.7234 4.20001 11.7H8.40001C8.50782 11.7012 8.6086 11.6449 8.66368 11.5512C8.71758 11.4574 8.71758 11.3426 8.66368 11.2488C8.6086 11.1551 8.50782 11.0988 8.40001 11.1H4.20001C4.19063 11.1 4.18126 11.1 4.17188 11.1C4.16251 11.1 4.15313 11.1 4.14376 11.1C4.13438 11.1 4.12501 11.1 4.11563 11.1ZM9.81563 11.1C9.6504 11.1234 9.53438 11.277 9.55782 11.4422C9.58126 11.6074 9.73477 11.7234 9.90001 11.7H10.8C10.9078 11.7012 11.0086 11.6449 11.0637 11.5512C11.1176 11.4574 11.1176 11.3426 11.0637 11.2488C11.0086 11.1551 10.9078 11.0988 10.8 11.1H9.90001C9.89063 11.1 9.88126 11.1 9.87188 11.1C9.86251 11.1 9.85313 11.1 9.84376 11.1C9.83438 11.1 9.82501 11.1 9.81563 11.1Z" fill="white" fill-opacity="0.92"/>
</svg>
