<svg width="60" height="60" viewBox="0 0 60 60" fill="none" xmlns="http://www.w3.org/2000/svg">
<path d="M0 0H60V60H0V0Z" fill="#F0DB4F"/>
<path d="M55.0893 45.6901C54.6502 42.9525 52.865 40.654 47.5779 38.5095C45.7414 37.6654 43.6939 37.0609 43.0836 35.6692C42.8669 34.8593 42.8384 34.4031 42.9753 33.9126C43.3688 32.3213 45.2681 31.8251 46.7738 32.2814C47.7433 32.6065 48.6616 33.3537 49.2148 34.5457C51.8042 32.8689 51.7985 32.8803 53.6065 31.7282C52.9449 30.7016 52.5912 30.2282 52.1578 29.7891C50.6008 28.0495 48.4791 27.1541 45.0855 27.2225C44.4981 27.2967 43.905 27.3765 43.3175 27.4507C41.6236 27.8784 40.0095 28.7682 39.0627 29.9602C36.2224 33.1826 37.0323 38.8232 40.4886 41.1446C43.8935 43.6997 48.8954 44.2815 49.5342 46.6712C50.1559 49.597 47.3841 50.5438 44.6293 50.2073C42.5989 49.7853 41.4696 48.7529 40.249 46.8765C38.002 48.1769 38.002 48.1769 35.6921 49.5058C36.2396 50.7035 36.8156 51.2453 37.7339 52.2834C42.0799 56.6921 52.9563 56.4754 54.9069 49.8024C54.9867 49.5742 55.5115 48.0457 55.0893 45.6901V45.6901ZM32.6179 27.5761H27.0057C27.0057 32.424 26.9829 37.2377 26.9829 42.0856C26.9829 45.1711 27.1426 48 26.6407 48.867C25.8194 50.5722 23.6921 50.3612 22.7225 50.0304C21.7358 49.5456 21.2339 48.8555 20.6521 47.8803C20.4924 47.6008 20.3727 47.3841 20.3327 47.367C18.8099 48.2966 17.2928 49.2319 15.77 50.1616C16.5286 51.7187 17.6464 53.0704 19.0779 53.9486C21.2167 55.2319 24.0913 55.6254 27.097 54.9353C29.0533 54.365 30.7414 53.1844 31.6255 51.3879C32.903 49.0324 32.6293 46.1806 32.6179 43.0266C32.6464 37.8822 32.6179 32.7377 32.6179 27.5761Z" fill="#323330"/>
</svg>
