<svg width="60" height="60" viewBox="0 0 60 60" fill="none" xmlns="http://www.w3.org/2000/svg">
<path d="M27.48 0.80067C28.98 -0.0487053 30.8925 -0.0524553 32.355 0.80067L54.75 13.425C56.1506 14.2125 57.0881 15.7744 57.075 17.3888V42.7013C57.0844 44.3832 56.055 45.9788 54.5775 46.7513L32.3025 59.3175C31.5406 59.7386 30.6799 59.9479 29.8098 59.9239C28.9396 59.8998 28.0918 59.6432 27.3544 59.1807L20.67 55.3182C20.2144 55.0463 19.7025 54.8307 19.38 54.39C19.665 54.0075 20.1712 53.9588 20.5837 53.79C21.5137 53.4938 22.365 53.04 23.22 52.56C23.4356 52.41 23.7 52.4663 23.9062 52.6013L29.6062 55.8975C30.0131 56.1319 30.4256 55.8225 30.7744 55.6257L52.6462 43.2825C52.9162 43.1513 53.0663 42.8663 53.0438 42.57V17.5013C53.0738 17.1638 52.8806 16.8563 52.575 16.7194L30.3563 4.20754C30.2282 4.11898 30.0763 4.07139 29.9206 4.07105C29.7649 4.07072 29.6128 4.11766 29.4844 4.20567L7.2975 16.7438C6.9975 16.8807 6.79125 17.1844 6.82875 17.5219V42.5907C6.8025 42.8869 6.96 43.1663 7.23187 43.2938L13.1606 46.6407C14.2744 47.2407 15.6412 47.5782 16.8675 47.1375C17.4041 46.9353 17.8661 46.5739 18.1915 46.1017C18.5169 45.6295 18.6902 45.0691 18.6881 44.4957L18.6937 19.5769C18.6675 19.2075 19.0162 18.9019 19.3744 18.9394H22.2244C22.5994 18.93 22.8937 19.3275 22.8431 19.6988L22.8375 44.775C22.8394 47.0025 21.9244 49.425 19.8637 50.5182C17.325 51.8307 14.1862 51.555 11.6775 50.2932L5.3025 46.7682C3.8025 46.0182 2.79562 44.3982 2.805 42.7182V17.4057C2.81123 16.583 3.0374 15.7769 3.46006 15.0711C3.88272 14.3652 4.48647 13.7852 5.20875 13.3913L27.48 0.80067ZM33.9375 18.3469C37.1756 18.1594 40.6425 18.2232 43.5562 19.8188C45.8119 21.0413 47.0625 23.6063 47.1037 26.115C47.04 26.4525 46.6875 26.64 46.365 26.6157C45.4275 26.6138 44.4862 26.6288 43.545 26.61C43.1456 26.625 42.915 26.2575 42.8644 25.905C42.5944 24.705 41.94 23.5182 40.8112 22.9388C39.0787 22.0707 37.0687 22.1138 35.1787 22.1325C33.7987 22.2075 32.3156 22.3257 31.1475 23.1357C30.2475 23.7507 29.9775 25.0107 30.2981 25.9894C30.5981 26.7075 31.4287 26.9382 32.1056 27.1519C36.0094 28.1719 40.1437 28.0894 43.9744 29.415C45.5587 29.9625 47.1094 31.0275 47.6531 32.6869C48.3619 34.9107 48.0525 37.5694 46.4719 39.3544C45.1894 40.8244 43.3219 41.6044 41.4562 42.0582C38.9756 42.6113 36.4031 42.6244 33.885 42.3769C31.5169 42.1069 29.0531 41.4844 27.225 39.8719C25.6612 38.5144 24.9 36.3994 24.975 34.3594C24.9937 34.0144 25.3369 33.7744 25.6687 33.8025H28.4812C28.86 33.7763 29.1375 34.1025 29.1562 34.4588C29.3306 35.5838 29.76 36.8025 30.7575 37.4588C32.6812 38.7 35.0944 38.6138 37.2956 38.6494C39.12 38.5688 41.1675 38.5444 42.6581 37.3369C43.4456 36.6488 43.6762 35.4994 43.4644 34.5094C43.2337 33.6732 42.3394 33.285 41.5894 33.0094C37.7362 31.7907 33.555 32.2332 29.7394 30.8532C28.1906 30.3057 26.6925 29.2707 26.0981 27.6788C25.2675 25.4288 25.6481 22.6407 27.3975 20.9157C29.085 19.2 31.56 18.5382 33.9037 18.3019L33.9375 18.3469Z" fill="#8CC84B"/>
</svg>
