<svg width="65" height="60" viewBox="0 0 65 60" fill="none" xmlns="http://www.w3.org/2000/svg">
<g clip-path="url(#clip0_764_243)">
<path d="M32.5 36.0107C35.6996 36.0107 38.2935 33.3196 38.2935 30C38.2935 26.6803 35.6996 23.9893 32.5 23.9893C29.3003 23.9893 26.7065 26.6803 26.7065 30C26.7065 33.3196 29.3003 36.0107 32.5 36.0107Z" fill="#61DAFB"/>
<path d="M32.5 42.3147C49.6689 42.3147 63.587 36.8012 63.587 30C63.587 23.1989 49.6689 17.6854 32.5 17.6854C15.3311 17.6854 1.41304 23.1989 1.41304 30C1.41304 36.8012 15.3311 42.3147 32.5 42.3147Z" stroke="#61DAFB" stroke-width="2"/>
<path d="M22.2207 36.1573C30.8051 51.5835 42.3664 61.3321 48.0435 57.9316C53.7206 54.531 51.3638 39.2689 42.7793 23.8427C34.1949 8.41651 22.6336 -1.33215 16.9565 2.06844C11.2794 5.46903 13.6362 20.7311 22.2207 36.1573Z" stroke="#61DAFB" stroke-width="2"/>
<path d="M22.2207 23.8426C13.6362 39.2688 11.2794 54.5309 16.9565 57.9315C22.6336 61.3321 34.1949 51.5834 42.7793 36.1573C51.3638 20.7311 53.7206 5.46899 48.0435 2.0684C42.3664 -1.33219 30.8051 8.41647 22.2207 23.8426Z" stroke="#61DAFB" stroke-width="2"/>
</g>
<defs>
<clipPath id="clip0_764_243">
<rect width="65" height="60" fill="white"/>
</clipPath>
</defs>
</svg>
