<svg width="873" height="92" viewBox="0 0 873 92" fill="none" xmlns="http://www.w3.org/2000/svg">
<g filter="url(#filter0_d_750_324)">
<path d="M0 24H60V84H0V24Z" fill="#F7DF1E"/>
<path d="M15.7762 74.1404L20.3678 71.3616C21.2536 72.9322 22.0594 74.261 23.9923 74.261C25.845 74.261 27.0131 73.5363 27.0131 70.7172V51.5458H32.6516V70.7969C32.6516 76.6369 29.2284 79.2951 24.234 79.2951C19.7234 79.2951 17.1051 76.959 15.7761 74.1399" fill="black"/>
<path d="M35.7143 73.5361L40.3053 70.878C41.5139 72.8517 43.0847 74.3015 45.8635 74.3015C48.1998 74.3015 49.6896 73.1334 49.6896 71.5223C49.6896 69.5891 48.1592 68.9043 45.5815 67.777L44.1723 67.1724C40.1042 65.4409 37.4056 63.2661 37.4056 58.6745C37.4056 54.4456 40.6276 51.2234 45.6623 51.2234C49.2469 51.2234 51.8245 52.4721 53.677 55.7344L49.2869 58.5536C48.3202 56.8219 47.2733 56.1373 45.6624 56.1373C44.0111 56.1373 42.9638 57.1844 42.9638 58.5536C42.9638 60.2452 44.0111 60.9301 46.4273 61.9773L47.8369 62.5814C52.6297 64.6356 55.3283 66.7297 55.3283 71.4418C55.3283 76.5168 51.3411 79.2956 45.9845 79.2956C40.7487 79.2956 37.3654 76.7986 35.7144 73.5361" fill="black"/>
</g>
<g filter="url(#filter1_d_750_324)">
<path d="M250 84C249.068 84 248.199 83.7611 247.391 83.3431L239.13 78.6256C237.888 77.9688 238.509 77.7299 238.882 77.6105C240.559 77.073 240.87 76.9536 242.609 75.9982C242.795 75.8787 243.043 75.9384 243.23 76.0579L249.565 79.7005C249.814 79.8199 250.124 79.8199 250.311 79.7005L275.093 65.9063C275.342 65.7869 275.466 65.548 275.466 65.2494V37.7207C275.466 37.4221 275.342 37.1833 275.093 37.0638L250.311 23.3294C250.062 23.2099 249.752 23.2099 249.565 23.3294L224.783 37.0638C224.534 37.1833 224.41 37.4819 224.41 37.7207V65.2494C224.41 65.4883 224.534 65.7869 224.783 65.9063L231.553 69.6684C235.217 71.4598 237.516 69.3698 237.516 67.2797V40.1093C237.516 39.751 237.826 39.3927 238.261 39.3927H241.429C241.801 39.3927 242.174 39.6913 242.174 40.1093V67.2797C242.174 71.9972 239.503 74.7441 234.845 74.7441C233.416 74.7441 232.298 74.7441 229.13 73.2513L222.609 69.6684C220.994 68.7726 220 67.1006 220 65.3091V37.7804C220 35.989 220.994 34.3169 222.609 33.4212L247.391 19.627C248.944 18.791 251.056 18.791 252.609 19.627L277.391 33.4212C279.006 34.3169 280 35.989 280 37.7804V65.3091C280 67.1006 279.006 68.7726 277.391 69.6684L252.609 83.4626C251.801 83.8209 250.87 84 250 84ZM257.64 65.0703C246.77 65.0703 244.534 60.2931 244.534 56.2324C244.534 55.8741 244.845 55.5158 245.28 55.5158H248.509C248.882 55.5158 249.193 55.7547 249.193 56.113C249.689 59.2779 251.118 60.8305 257.702 60.8305C262.919 60.8305 265.155 59.6959 265.155 57.0087C265.155 55.4561 264.534 54.3215 256.398 53.5452C249.627 52.8884 245.404 51.4552 245.404 46.26C245.404 41.4231 249.627 38.5567 256.708 38.5567C264.658 38.5567 268.571 41.1842 269.068 46.9169C269.068 47.096 269.006 47.2751 268.882 47.4543C268.758 47.5737 268.571 47.6932 268.385 47.6932H265.155C264.845 47.6932 264.534 47.4543 264.472 47.1557C263.727 43.8714 261.801 42.7965 256.708 42.7965C250.994 42.7965 250.311 44.7074 250.311 46.1406C250.311 47.8723 251.118 48.4097 258.82 49.3652C266.46 50.3206 270.062 51.6941 270.062 56.8296C270 62.0845 265.528 65.0703 257.64 65.0703Z" fill="#539E43"/>
</g>
<g filter="url(#filter2_d_750_324)">
<rect width="43" height="60" transform="matrix(1 0 0 -1 465 77)" fill="#D9D9D9"/>
</g>
<g filter="url(#filter3_d_750_324)">
<path d="M140 34C133.333 34 129.167 38.4444 127.5 47.3333C130 42.8889 132.917 41.2222 136.25 42.3333C138.152 42.9673 139.511 44.8069 141.016 46.8433C143.467 50.1606 146.304 54 152.5 54C159.167 54 163.333 49.5556 165 40.6667C162.5 45.1111 159.583 46.7778 156.25 45.6667C154.348 45.0327 152.989 43.1931 151.484 41.1567C149.033 37.8394 146.196 34 140 34ZM127.5 54C120.833 54 116.667 58.4444 115 67.3333C117.5 62.8889 120.417 61.2222 123.75 62.3333C125.652 62.9673 127.011 64.8069 128.516 66.8433C130.967 70.1606 133.804 74 140 74C146.667 74 150.833 69.5556 152.5 60.6667C150 65.1111 147.083 66.7778 143.75 65.6667C141.848 65.0327 140.489 63.1931 138.984 61.1567C136.533 57.8394 133.696 54 127.5 54Z" fill="url(#paint0_linear_750_324)"/>
</g>
<g filter="url(#filter4_d_750_324)">
<rect x="345" y="20" width="36" height="60" fill="#D9D9D9"/>
</g>
<g clip-path="url(#clip0_750_324)">
<path d="M338.94 79.9818L334 20.1119L393 20.2322L387.776 79.9818L363.723 86.8881L338.94 79.9818Z" fill="#E34F26"/>
<path d="M363.723 81.106V25.8137L388.019 25.8939L383.687 75.3636L363.723 81.106Z" fill="#EF652A"/>
<path d="M381.338 39.6269L382.026 32.3186H344.65L346.715 54.7248H372.51L371.498 64.2813L363.237 66.4894L354.855 64.0804L354.41 58.3785H346.999L348.011 70.0233L363.237 74.2394L378.584 70.0233L380.649 47.2962H353.559L352.79 39.6269H381.338Z" fill="white"/>
</g>
<path d="M488.964 83.7878L464.722 77.058L459.32 16.4663H518.68L513.273 77.0487L488.964 83.7878V83.7878Z" fill="#264DE4"/>
<path d="M508.643 73.1909L513.264 21.4204H489V78.6365L508.643 73.1909V73.1909Z" fill="#2965F1"/>
<path d="M471.704 43.8932L472.37 51.3245H489V43.8932H471.704ZM470.366 28.8521L471.041 36.2834H489V28.8521H470.366V28.8521ZM489 63.1932L488.967 63.2018L480.691 60.967L480.162 55.0403H472.702L473.743 66.7086L488.966 70.9342L489 70.9249V63.1932Z" fill="#EBEBEB"/>
<path d="M506.248 43.8932L507.59 28.8521H488.974V36.2834H499.446L498.77 43.8932H488.974V51.3245H498.125L497.262 60.9624L488.974 63.1994V70.9307L504.209 66.7086L504.321 65.453L506.067 45.8887L506.248 43.8932V43.8932Z" fill="white"/>
<g clip-path="url(#clip1_750_324)">
<g filter="url(#filter5_d_750_324)">
<path d="M586 49.0063C586 44.9367 590.978 41.08 598.609 38.6883C596.848 30.7244 597.631 24.3884 601.079 22.3599C601.874 21.884 602.804 21.6586 603.819 21.6586V24.451C603.256 24.451 602.804 24.5637 602.425 24.7766C600.762 25.7533 600.04 29.4722 600.603 34.2556C600.737 35.4326 600.957 36.6723 601.226 37.937C603.623 37.3359 606.241 36.8726 608.992 36.5721C610.643 34.2556 612.355 32.1519 614.08 30.3112C610.093 26.5171 606.351 24.4385 603.807 24.4385V21.6461C607.17 21.6461 611.573 24.1004 616.024 28.3578C620.476 24.1254 624.879 21.6962 628.242 21.6962V24.4886C625.711 24.4886 621.956 26.5547 617.969 30.3237C619.681 32.1644 621.393 34.2556 623.02 36.5721C625.784 36.8726 628.401 37.3359 630.798 37.9495C631.079 36.6973 631.287 35.4827 631.434 34.3182C632.009 29.5349 631.3 25.8159 629.649 24.8267C629.282 24.6013 628.805 24.5011 628.242 24.5011V21.7087C629.269 21.7087 630.199 21.9341 631.006 22.4099C634.443 24.4385 635.213 30.762 633.44 38.7008C641.047 41.105 646 44.9492 646 49.0063C646 53.0759 641.022 56.9326 633.391 59.3242C635.152 67.2881 634.369 73.6241 630.921 75.6527C630.126 76.1285 629.196 76.3539 628.169 76.3539C624.806 76.3539 620.403 73.8996 615.951 69.6422C611.499 73.8746 607.097 76.3038 603.733 76.3038C602.706 76.3038 601.777 76.0784 600.969 75.6026C597.533 73.5741 596.762 67.2505 598.536 59.3117C590.953 56.9201 586 53.0633 586 49.0063V49.0063ZM601.923 40.6542C602.376 42.2695 602.938 43.9349 603.574 45.6003C604.076 44.5986 604.602 43.5969 605.177 42.5951C605.739 41.5934 606.338 40.6167 606.938 39.665C605.201 39.928 603.525 40.2535 601.923 40.6542ZM607.525 53.99C608.479 55.6804 609.457 57.2832 610.472 58.7733C612.294 58.9361 614.141 59.0237 616 59.0237C617.847 59.0237 619.693 58.9361 621.503 58.7858C622.519 57.2957 623.509 55.7054 624.463 54.0275C625.393 52.3872 626.236 50.7218 627.007 49.0438C626.249 47.3659 625.393 45.688 624.475 44.0476C623.521 42.3572 622.543 40.7544 621.528 39.2643C619.706 39.1015 617.859 39.0139 616 39.0139C614.153 39.0139 612.307 39.1015 610.497 39.2518C609.481 40.7419 608.491 42.3321 607.537 44.0101C606.607 45.6504 605.764 47.3158 604.993 48.9937C605.764 50.6717 606.607 52.3496 607.525 53.99ZM603.574 52.3621C602.914 54.04 602.351 55.718 601.887 57.3458C603.489 57.7465 605.177 58.0846 606.925 58.3475C606.326 57.3834 605.727 56.3941 605.164 55.3799C604.602 54.3781 604.076 53.3639 603.574 52.3621ZM615.976 65.7229C617.113 64.5208 618.25 63.181 619.375 61.7159C618.275 61.766 617.15 61.8036 616.012 61.8036C614.863 61.8036 613.725 61.7785 612.612 61.7159C613.713 63.181 614.85 64.5208 615.976 65.7229ZM625.075 58.3475C626.811 58.0846 628.487 57.759 630.089 57.3583C629.636 55.743 629.074 54.0776 628.438 52.4122C627.936 53.4139 627.411 54.4157 626.836 55.4174C626.261 56.4192 625.674 57.3959 625.075 58.3475ZM616.037 32.2897C614.899 33.4917 613.762 34.8316 612.637 36.2966C613.737 36.2465 614.863 36.209 616 36.209C617.15 36.209 618.287 36.234 619.4 36.2966C618.299 34.8316 617.162 33.4917 616.037 32.2897ZM625.087 39.665C625.686 40.6292 626.285 41.6184 626.848 42.6327C627.411 43.6344 627.936 44.6362 628.438 45.6379C629.098 43.96 629.661 42.2821 630.126 40.6542C628.523 40.266 626.836 39.928 625.087 39.665V39.665ZM636.155 55.3423C640.484 53.4515 643.285 50.9722 643.285 49.0063C643.285 47.0403 640.484 44.5485 636.155 42.6702C635.103 42.2069 633.954 41.7937 632.767 41.4055C632.07 43.8598 631.153 46.4143 630.015 49.0313C631.141 51.6359 632.046 54.1778 632.731 56.6195C633.941 56.2314 635.091 55.8056 636.155 55.3423ZM629.575 73.236C631.238 72.2593 631.96 68.5403 631.397 63.757C631.263 62.5799 631.043 61.3403 630.774 60.0756C628.377 60.6766 625.759 61.1399 623.008 61.4404C621.357 63.757 619.645 65.8606 617.92 67.7013C621.907 71.4954 625.649 73.5741 628.193 73.5741C628.744 73.5615 629.208 73.4488 629.575 73.236V73.236ZM600.566 63.6944C599.991 68.4777 600.7 72.1967 602.351 73.1859C602.718 73.4113 603.195 73.5115 603.758 73.5115C606.289 73.5115 610.044 71.4454 614.031 67.6763C612.319 65.8356 610.607 63.7444 608.98 61.4279C606.216 61.1274 603.599 60.6641 601.202 60.0505C600.921 61.3152 600.7 62.5298 600.566 63.6944V63.6944ZM595.857 55.3423C596.909 55.8056 598.059 56.2188 599.245 56.607C599.942 54.1527 600.859 51.5983 601.997 48.9812C600.872 46.3767 599.967 43.8348 599.282 41.393C598.071 41.7812 596.921 42.2069 595.845 42.6702C591.516 44.561 588.715 47.0403 588.715 49.0063C588.727 50.9722 591.528 53.464 595.857 55.3423V55.3423Z" fill="#61DAFB"/>
</g>
<path d="M616.012 54.7287C612.925 54.7287 610.423 52.1667 610.423 49.0063C610.423 45.8458 612.925 43.2838 616.012 43.2838C619.099 43.2838 621.601 45.8458 621.601 49.0063C621.601 52.1667 619.099 54.7287 616.012 54.7287Z" fill="#61DAFB"/>
</g>
<g clip-path="url(#clip2_750_324)">
<path d="M721.783 52.2601C719.416 40.328 714.483 37.1516 713.225 34.9061C712.706 33.917 712.247 32.8888 711.849 31.8286C711.783 32.8886 711.661 33.5564 710.872 34.3602C709.289 35.9732 702.566 42.2343 702 55.7917C701.473 68.4322 710.132 76.2267 711.276 77.0323C712.155 77.527 713.227 77.0429 713.749 76.5889C717.923 73.3152 723.626 64.5879 721.788 52.2601" fill="#10AA50"/>
<path d="M712.208 70.3013C711.99 73.43 711.834 75.2479 711.28 77.0358C711.28 77.0358 711.644 80.0144 711.899 83.1697H712.802C713.017 80.9478 713.346 78.7422 713.786 76.5641C712.618 75.9069 712.253 73.0467 712.208 70.3013Z" fill="#B8C4C2"/>
<path d="M713.785 76.5658C712.604 75.9422 712.262 73.0219 712.209 70.3012C712.502 65.8133 712.587 61.3109 712.465 56.8127C712.403 54.4524 712.494 34.952 711.956 32.097C712.324 33.064 712.748 34.0018 713.225 34.9043C714.483 37.1515 719.418 40.3279 721.783 52.26C723.626 64.5666 717.954 73.271 713.785 76.5658Z" fill="#12924F"/>
<path d="M869.458 72.2517C868.953 72.2516 868.458 72.0807 868.037 71.7604C867.616 71.4401 867.288 70.9848 867.092 70.4516C866.897 69.9184 866.845 69.3312 866.941 68.7638C867.037 68.1964 867.278 67.6741 867.633 67.2626C867.988 66.8512 868.441 66.5689 868.937 66.4513C869.432 66.3336 869.946 66.3859 870.415 66.6015C870.885 66.8171 871.288 67.1864 871.574 67.6631C871.86 68.1397 872.016 68.7023 872.023 69.2802C872.032 69.6698 871.972 70.0576 871.847 70.4202C871.722 70.7828 871.534 71.1127 871.295 71.3902C871.055 71.6678 870.769 71.8871 870.453 72.0351C870.138 72.1832 869.799 72.2568 869.458 72.2517V72.2517ZM869.458 66.6549C868.996 66.6514 868.544 66.8047 868.158 67.0954C867.772 67.3861 867.471 67.801 867.291 68.2878C867.112 68.7745 867.063 69.311 867.151 69.8295C867.239 70.3479 867.459 70.8249 867.785 71.2C868.11 71.5752 868.525 71.8316 868.978 71.9367C869.431 72.0419 869.901 71.9911 870.328 71.7908C870.756 71.5905 871.122 71.2497 871.38 70.8116C871.638 70.3735 871.776 69.8577 871.777 69.3296C871.783 68.9786 871.727 68.6297 871.613 68.3037C871.499 67.9777 871.329 67.6812 871.113 67.4318C870.897 67.1824 870.639 66.9851 870.354 66.8516C870.07 66.7182 869.766 66.6513 869.458 66.6549V66.6549ZM870.077 71.174L869.415 69.5434H868.882V71.174H868.494V67.464H869.451C870.163 67.464 870.46 67.8174 870.46 68.5011C870.46 69.0452 870.236 69.3844 869.819 69.4886L870.502 71.1687L870.077 71.174ZM868.897 69.16H869.458C869.913 69.16 870.086 68.9834 870.086 68.5099C870.086 68.0364 869.921 67.8757 869.409 67.8757H868.897V69.16Z" fill="#21313C"/>
<g filter="url(#filter6_d_750_324)">
<path d="M831.288 69.5804C831.982 70.2147 833.369 70.4761 834.592 70.4761C836.176 70.4761 837.73 70.1405 839.248 68.5734C840.794 66.9675 841.858 64.5101 841.858 60.5863C841.858 56.8163 840.602 53.7564 838.027 51.965C836.574 50.9209 834.691 50.5093 832.543 50.5093C831.925 50.5093 831.288 50.5464 830.926 50.7336C830.778 50.8674 830.673 51.0539 830.628 51.2636C830.563 51.935 830.563 57.0477 830.563 60.0705C830.563 63.1692 830.563 67.4905 830.628 68.0205C830.662 68.4692 830.86 69.2571 831.288 69.5875V69.5804ZM824.696 48.8309C825.258 48.8309 827.391 48.9422 828.383 48.9422C830.238 48.9422 831.52 48.8309 834.987 48.8309C837.894 48.8309 840.339 49.7266 842.088 51.4421C844.203 53.5338 845.334 56.4435 845.334 59.9892C845.334 65.0277 843.325 67.9392 841.304 69.5804C839.294 71.2976 836.68 72.2675 832.956 72.2675C830.974 72.2675 827.572 72.1933 824.732 72.1562H824.673C824.54 71.8577 824.916 70.6934 825.148 70.6634C825.921 70.5645 826.125 70.5291 826.48 70.3613C827.08 70.0804 827.221 69.7306 827.287 68.4992C827.386 66.1849 827.354 63.4236 827.354 60.2878C827.354 58.0494 827.386 53.6822 827.321 52.3007C827.221 51.1453 826.794 50.8467 825.93 50.6223C825.317 50.4736 824.698 50.3615 824.075 50.2867C824.01 50.0623 824.517 49.05 824.682 48.8309" fill="#21313C"/>
</g>
<g filter="url(#filter7_d_750_324)">
<path d="M853.52 50.7249C853.389 50.762 853.223 51.1365 853.223 51.322C853.189 52.6664 853.157 56.1733 853.157 58.5989C853.165 58.6453 853.185 58.6878 853.215 58.7211C853.244 58.7544 853.281 58.777 853.322 58.7862C853.75 58.8233 854.808 58.8621 855.7 58.8621C856.955 58.8621 857.682 58.6749 858.077 58.4505C859.135 57.8534 859.623 56.546 859.623 55.1292C859.623 51.882 857.641 50.6507 854.703 50.6507C854.305 50.6449 853.908 50.6697 853.514 50.7249H853.52ZM861.011 65.6532C861.011 62.369 858.897 60.5034 855.032 60.5034C854.868 60.5034 853.641 60.4663 853.348 60.5405C853.249 60.5776 853.15 60.6518 853.15 60.7277C853.15 63.0792 853.116 66.8475 853.217 68.3403C853.283 68.9745 853.681 69.8702 854.174 70.1317C854.703 70.4674 855.891 70.5416 856.717 70.5416C858.996 70.5416 861.011 69.0876 861.011 65.6532V65.6532ZM847.553 48.8964C847.851 48.8964 848.729 49.0077 850.975 49.0077C853.089 49.0077 854.806 48.9335 856.85 48.9335C859.393 48.9335 862.893 49.9793 862.893 54.3077C862.893 56.4277 861.573 58.1519 859.855 58.9734C859.756 59.0105 859.756 59.0847 859.855 59.1218C862.299 59.8285 864.445 61.5475 864.445 64.8317C864.445 68.0417 862.695 70.0575 860.152 71.326C858.606 72.1104 856.684 72.3701 854.741 72.3701C853.256 72.3701 849.273 72.1934 847.06 72.2217C846.828 72.1104 847.271 70.9143 847.469 70.7288C847.976 70.711 848.48 70.6208 848.967 70.4603C849.759 70.2377 849.853 69.9462 849.952 68.6018C850.018 67.4446 850.018 63.3018 850.018 60.3532C850.018 56.3217 850.052 53.5992 850.018 52.2548C849.986 51.2107 849.655 50.8733 849.028 50.6878C848.533 50.5747 847.707 50.4634 847.047 50.3521C846.882 50.1648 847.39 49.0448 847.554 48.8964" fill="#21313C"/>
</g>
<g filter="url(#filter8_d_750_324)">
<path d="M729.097 72.2517C729.012 72.0128 728.978 71.7543 728.997 71.4973C728.989 71.3221 729.024 71.148 729.097 70.9938C729.524 70.9234 729.947 70.8249 730.365 70.6988C730.949 70.5327 731.169 70.1688 731.203 69.3172C731.298 67.305 731.305 63.5296 731.271 60.8761V60.7984C731.271 60.5122 731.271 60.1235 730.961 59.8497C730.418 59.46 729.828 59.1625 729.21 58.9663C728.933 58.8727 728.78 58.7066 728.788 58.5123C728.796 58.318 728.97 58.0883 729.33 58.007C730.287 57.8957 732.795 57.212 733.78 56.6926C733.881 56.8436 733.928 57.0333 733.911 57.2226C733.911 57.3392 733.896 57.4629 733.885 57.5901C733.857 57.9646 733.826 58.3904 733.826 58.8144C733.832 58.8659 733.851 58.9145 733.879 58.9546C733.908 58.9947 733.946 59.0248 733.989 59.0415C734.033 59.0582 734.079 59.0609 734.123 59.0492C734.167 59.0374 734.208 59.0118 734.24 58.9752C736.115 57.2951 737.796 56.6962 738.657 56.6962C740.075 56.6962 741.178 57.47 742.033 59.0635C742.053 59.102 742.081 59.134 742.114 59.1566C742.148 59.1792 742.186 59.1915 742.225 59.1925C742.26 59.1921 742.295 59.1819 742.326 59.1629C742.358 59.1438 742.384 59.1164 742.404 59.0829C744.128 57.5883 745.836 56.6962 746.98 56.6962C749.682 56.6962 751.298 59.0087 751.298 62.8795C751.298 63.9925 751.289 65.4041 751.279 66.7202C751.272 67.8756 751.264 68.9586 751.264 69.7077C751.264 69.8843 751.477 70.3931 751.797 70.4938C752.193 70.7147 752.763 70.8277 753.485 70.9691H753.513C753.567 71.1917 753.453 72.0556 753.343 72.2322C753.164 72.2322 752.916 72.2146 752.607 72.1969C752.046 72.1651 751.276 72.1209 750.381 72.1209C748.585 72.1209 747.646 72.1598 746.75 72.2269C746.682 71.9708 746.659 71.144 746.741 70.9708C747.112 70.9045 747.479 70.813 747.841 70.697C748.413 70.4815 748.579 70.1847 748.614 69.3172C748.628 68.7007 748.732 63.2682 748.548 61.9785C748.378 60.6411 747.496 59.0759 745.569 59.0759C744.853 59.0759 743.698 59.4168 742.597 60.3708C742.529 60.4593 742.491 60.5727 742.489 60.6906V60.7171C742.619 61.4132 742.619 62.2258 742.619 63.4537C742.619 64.1603 742.619 64.897 742.611 65.6337C742.604 67.1319 742.597 68.5452 742.619 69.614C742.619 70.3419 743.004 70.5168 743.315 70.6564C743.483 70.6988 743.616 70.7359 743.751 70.7712C744.009 70.8436 744.278 70.9178 744.678 70.9903C744.738 71.3006 744.732 71.6225 744.663 71.9301C744.646 72.0456 744.607 72.155 744.547 72.2499C743.548 72.211 742.523 72.1775 741.044 72.1775C740.596 72.1775 739.864 72.1987 739.218 72.2181C738.694 72.234 738.199 72.2499 737.918 72.2517C737.842 72.0465 737.808 71.824 737.819 71.6015C737.803 71.3919 737.839 71.1814 737.923 70.9938L738.32 70.9108C738.666 70.8401 738.966 70.78 739.247 70.6988C739.736 70.5221 739.92 70.2182 739.956 69.5063C740.051 67.8456 740.126 63.0597 739.92 61.8619C739.571 59.9398 738.614 58.9646 737.074 58.9646C736.173 58.9646 735.033 59.461 734.103 60.2578C734.013 60.3574 733.943 60.4771 733.896 60.6093C733.848 60.7416 733.826 60.8835 733.829 61.0263C733.829 61.5969 733.829 62.2753 733.829 63.0032C733.829 65.4058 733.815 68.3968 733.866 69.69C733.897 70.0893 734.021 70.5627 734.675 70.7359C734.818 70.7836 735.066 70.8295 735.353 70.8843C735.519 70.9161 735.7 70.9496 735.887 70.9885C735.946 71.4115 735.916 71.8447 735.799 72.2517C735.511 72.2517 735.157 72.2305 734.752 72.211C734.134 72.1792 733.361 72.1404 732.487 72.1404C731.455 72.1404 730.736 72.1792 730.159 72.211C729.771 72.2322 729.436 72.2499 729.1 72.2517" fill="#21313C"/>
</g>
<g filter="url(#filter9_d_750_324)">
<path d="M762.249 58.2933C761.691 58.28 761.142 58.4565 760.672 58.8003C759.525 59.5971 758.941 61.1888 758.941 63.5279C758.941 67.9057 760.859 70.9638 763.606 70.9638C764.343 70.9905 765.061 70.6998 765.619 70.1494C766.463 69.3632 766.912 67.7555 766.912 65.5048C766.912 61.1924 765.036 58.2933 762.246 58.2933H762.249ZM762.775 72.5874C757.812 72.5874 756.045 68.4269 756.045 64.5349C756.045 61.816 757.018 59.6907 758.936 58.2155C760.28 57.2649 761.822 56.7438 763.402 56.7068C767.188 56.7068 769.833 59.8179 769.833 64.2752C769.833 67.3033 768.778 69.6953 766.779 71.1899C765.819 71.8613 764.151 72.5874 762.775 72.5874" fill="#21313C"/>
</g>
<g filter="url(#filter10_d_750_324)">
<path d="M812.77 58.2933C812.211 58.2788 811.66 58.4553 811.19 58.8003C810.043 59.5971 809.458 61.1888 809.458 63.5279C809.458 67.9057 811.377 70.9638 814.124 70.9638C814.863 70.9923 815.583 70.7015 816.143 70.1494C816.987 69.3632 817.434 67.7555 817.434 65.5048C817.434 61.1924 815.56 58.2933 812.77 58.2933V58.2933ZM813.298 72.5874C808.336 72.5874 806.569 68.4269 806.569 64.5367C806.569 61.8142 807.541 59.6907 809.461 58.2155C810.804 57.2643 812.346 56.7432 813.926 56.7068C817.712 56.7068 820.357 59.8197 820.357 64.2734C820.357 67.305 819.301 69.6953 817.302 71.1882C816.342 71.8613 814.674 72.5874 813.298 72.5874" fill="#21313C"/>
</g>
<g filter="url(#filter11_d_750_324)">
<path d="M796.061 58.1448C794.532 58.1448 793.543 59.5246 793.543 61.6605C793.543 63.7964 794.395 66.3351 796.79 66.3351C797.201 66.3351 797.946 66.1266 798.315 65.662C798.872 65.0772 799.243 63.8688 799.243 62.5933C799.243 59.8073 798.056 58.1448 796.069 58.1448H796.061ZM795.871 72.8859C795.439 72.8805 795.013 73.0022 794.635 73.2392C793.424 74.1226 792.863 75.0059 792.863 76.0323C792.863 76.9934 793.189 77.7584 793.891 78.4368C794.741 79.26 795.888 79.6611 797.396 79.6611C800.362 79.6611 801.692 77.8379 801.692 76.0323C801.692 74.7745 801.14 73.9318 800.003 73.4548C799.128 73.0891 797.666 72.8877 795.876 72.8877L795.871 72.8859ZM796.074 81.5443C794.293 81.5443 793.01 81.115 791.914 80.1504C790.847 79.2106 790.368 77.8149 790.368 76.8503C790.379 76.2287 790.587 75.6327 790.952 75.172C791.261 74.7692 791.98 74.0148 793.642 72.7092C793.668 72.6967 793.69 72.6758 793.705 72.6491C793.721 72.6224 793.729 72.5911 793.729 72.5591C793.729 72.5234 793.719 72.4885 793.7 72.4603C793.681 72.432 793.654 72.412 793.623 72.4036C792.255 71.8047 791.843 70.8136 791.717 70.2836C791.717 70.2642 791.717 70.2341 791.703 70.2006C791.665 69.9921 791.628 69.7942 791.877 69.5911C792.068 69.4356 792.374 69.2271 792.702 69.0063C793.165 68.7136 793.609 68.3836 794.03 68.0187C794.053 67.9909 794.07 67.9575 794.079 67.9211C794.089 67.8847 794.091 67.8463 794.086 67.8088C794.08 67.7713 794.067 67.7357 794.048 67.7047C794.029 67.6737 794.004 67.6482 793.974 67.6301C791.949 66.8527 790.929 65.1338 790.929 62.5067C790.923 61.6875 791.09 60.8787 791.415 60.1489C791.741 59.4191 792.216 58.7898 792.8 58.3144C793.614 57.5777 795.659 56.6926 796.984 56.6926H797.062C798.424 56.7297 799.192 57.0566 800.255 57.5053C800.86 57.7553 801.502 57.8716 802.145 57.848C803.272 57.848 803.765 57.4399 804.188 56.9647C804.257 57.1788 804.294 57.4045 804.296 57.6325C804.322 58.1757 804.193 58.7138 803.929 59.166C803.698 59.5317 803.156 59.7967 802.659 59.7967C802.608 59.7967 802.559 59.7967 802.505 59.7878C802.244 59.7668 801.985 59.7177 801.732 59.6412L801.605 59.6924C801.565 59.7596 801.591 59.8338 801.624 59.9292C801.632 59.9478 801.638 59.9673 801.642 59.9875C801.733 60.459 801.794 60.9371 801.826 61.4185C801.826 64.1656 800.878 65.3617 799.854 66.2485C798.863 67.0982 797.686 67.6191 796.453 67.7537V67.7537C796.426 67.7537 796.298 67.7661 796.057 67.7908C795.902 67.8067 795.701 67.8279 795.672 67.8279H795.642C795.42 67.8986 794.839 68.2148 794.839 68.8031C794.839 69.2907 795.101 69.8967 796.358 70.0062L797.171 70.0716C798.829 70.2041 800.899 70.3684 801.872 70.7447C802.519 71.0043 803.077 71.4901 803.467 72.1331C803.858 72.776 804.061 73.5432 804.048 74.3257C804.048 76.7902 802.514 79.1081 799.946 80.525C798.735 81.1859 797.41 81.5259 796.068 81.5196" fill="#21313C"/>
</g>
<g filter="url(#filter12_d_750_324)">
<path d="M788.477 70.9373C787.751 70.826 787.22 70.7129 786.594 70.3772C786.471 70.2318 786.39 70.0468 786.362 69.8472C786.296 68.6901 786.296 65.3316 786.296 63.1339C786.296 61.3407 786.033 59.7772 785.368 58.6554C784.575 57.3852 783.453 56.6396 782 56.6396C780.712 56.6396 778.994 57.6466 777.575 59.0282C777.541 59.0653 777.323 59.302 777.328 58.9345C777.333 58.5671 777.382 57.8215 777.413 57.3445C777.427 57.2178 777.414 57.0892 777.377 56.9689C777.339 56.8487 777.277 56.7401 777.197 56.652C776.269 57.182 773.667 57.8887 772.704 57.9964C772.002 58.1519 771.825 58.9239 772.574 59.1907H772.585C773.185 59.3798 773.758 59.6679 774.286 60.0458C774.582 60.3072 774.55 60.68 774.55 60.9786C774.582 63.4784 774.582 67.3227 774.483 69.4126C774.451 70.2341 774.252 70.5327 773.723 70.6829L773.772 70.6634C773.37 70.7787 772.961 70.8661 772.55 70.9249C772.384 71.1104 772.384 72.1934 772.55 72.4177C772.88 72.4177 774.559 72.3064 775.951 72.3064C777.864 72.3064 778.855 72.4177 779.352 72.4177C779.551 72.1563 779.616 71.1493 779.485 70.9249C779.027 70.9013 778.573 70.8261 778.129 70.7005C777.602 70.5521 777.469 70.2518 777.436 69.5822C777.371 67.8262 777.371 64.095 777.371 61.5563C777.371 60.8496 777.535 60.5122 777.733 60.3196C778.393 59.6483 779.485 59.2013 780.441 59.2013C781.369 59.2013 781.987 59.537 782.451 59.9839C782.991 60.5226 783.33 61.2777 783.397 62.0933C783.529 63.5067 783.495 66.3492 783.495 68.8067C783.495 70.1511 783.397 70.4885 782.967 70.6369C782.77 70.7482 782.241 70.8613 781.613 70.9355C781.415 71.1599 781.48 72.204 781.613 72.4283C782.471 72.4283 783.468 72.317 784.915 72.317C786.732 72.317 787.888 72.4283 788.35 72.4283C788.548 72.1669 788.615 71.1917 788.483 70.9355" fill="#21313C"/>
</g>
</g>
<defs>
<filter id="filter0_d_750_324" x="0" y="24" width="74" height="68" filterUnits="userSpaceOnUse" color-interpolation-filters="sRGB">
<feFlood flood-opacity="0" result="BackgroundImageFix"/>
<feColorMatrix in="SourceAlpha" type="matrix" values="0 0 0 0 0 0 0 0 0 0 0 0 0 0 0 0 0 0 127 0" result="hardAlpha"/>
<feOffset dx="10" dy="4"/>
<feGaussianBlur stdDeviation="2"/>
<feComposite in2="hardAlpha" operator="out"/>
<feColorMatrix type="matrix" values="0 0 0 0 0 0 0 0 0 0 0 0 0 0 0 0 0 0 0.13 0"/>
<feBlend mode="normal" in2="BackgroundImageFix" result="effect1_dropShadow_750_324"/>
<feBlend mode="normal" in="SourceGraphic" in2="effect1_dropShadow_750_324" result="shape"/>
</filter>
<filter id="filter1_d_750_324" x="220" y="19" width="74" height="73" filterUnits="userSpaceOnUse" color-interpolation-filters="sRGB">
<feFlood flood-opacity="0" result="BackgroundImageFix"/>
<feColorMatrix in="SourceAlpha" type="matrix" values="0 0 0 0 0 0 0 0 0 0 0 0 0 0 0 0 0 0 127 0" result="hardAlpha"/>
<feOffset dx="10" dy="4"/>
<feGaussianBlur stdDeviation="2"/>
<feComposite in2="hardAlpha" operator="out"/>
<feColorMatrix type="matrix" values="0 0 0 0 0 0 0 0 0 0 0 0 0 0 0 0 0 0 0.13 0"/>
<feBlend mode="normal" in2="BackgroundImageFix" result="effect1_dropShadow_750_324"/>
<feBlend mode="normal" in="SourceGraphic" in2="effect1_dropShadow_750_324" result="shape"/>
</filter>
<filter id="filter2_d_750_324" x="465" y="17" width="62" height="68" filterUnits="userSpaceOnUse" color-interpolation-filters="sRGB">
<feFlood flood-opacity="0" result="BackgroundImageFix"/>
<feColorMatrix in="SourceAlpha" type="matrix" values="0 0 0 0 0 0 0 0 0 0 0 0 0 0 0 0 0 0 127 0" result="hardAlpha"/>
<feOffset dx="15" dy="4"/>
<feGaussianBlur stdDeviation="2"/>
<feComposite in2="hardAlpha" operator="out"/>
<feColorMatrix type="matrix" values="0 0 0 0 0 0 0 0 0 0 0 0 0 0 0 0 0 0 0.13 0"/>
<feBlend mode="normal" in2="BackgroundImageFix" result="effect1_dropShadow_750_324"/>
<feBlend mode="normal" in="SourceGraphic" in2="effect1_dropShadow_750_324" result="shape"/>
</filter>
<filter id="filter3_d_750_324" x="115" y="34" width="64" height="48" filterUnits="userSpaceOnUse" color-interpolation-filters="sRGB">
<feFlood flood-opacity="0" result="BackgroundImageFix"/>
<feColorMatrix in="SourceAlpha" type="matrix" values="0 0 0 0 0 0 0 0 0 0 0 0 0 0 0 0 0 0 127 0" result="hardAlpha"/>
<feOffset dx="10" dy="4"/>
<feGaussianBlur stdDeviation="2"/>
<feComposite in2="hardAlpha" operator="out"/>
<feColorMatrix type="matrix" values="0 0 0 0 0 0 0 0 0 0 0 0 0 0 0 0 0 0 0.13 0"/>
<feBlend mode="normal" in2="BackgroundImageFix" result="effect1_dropShadow_750_324"/>
<feBlend mode="normal" in="SourceGraphic" in2="effect1_dropShadow_750_324" result="shape"/>
</filter>
<filter id="filter4_d_750_324" x="345" y="20" width="55" height="68" filterUnits="userSpaceOnUse" color-interpolation-filters="sRGB">
<feFlood flood-opacity="0" result="BackgroundImageFix"/>
<feColorMatrix in="SourceAlpha" type="matrix" values="0 0 0 0 0 0 0 0 0 0 0 0 0 0 0 0 0 0 127 0" result="hardAlpha"/>
<feOffset dx="15" dy="4"/>
<feGaussianBlur stdDeviation="2"/>
<feComposite in2="hardAlpha" operator="out"/>
<feColorMatrix type="matrix" values="0 0 0 0 0 0 0 0 0 0 0 0 0 0 0 0 0 0 0.13 0"/>
<feBlend mode="normal" in2="BackgroundImageFix" result="effect1_dropShadow_750_324"/>
<feBlend mode="normal" in="SourceGraphic" in2="effect1_dropShadow_750_324" result="shape"/>
</filter>
<filter id="filter5_d_750_324" x="582" y="21.6461" width="68" height="62.7078" filterUnits="userSpaceOnUse" color-interpolation-filters="sRGB">
<feFlood flood-opacity="0" result="BackgroundImageFix"/>
<feColorMatrix in="SourceAlpha" type="matrix" values="0 0 0 0 0 0 0 0 0 0 0 0 0 0 0 0 0 0 127 0" result="hardAlpha"/>
<feOffset dy="4"/>
<feGaussianBlur stdDeviation="2"/>
<feComposite in2="hardAlpha" operator="out"/>
<feColorMatrix type="matrix" values="0 0 0 0 0 0 0 0 0 0 0 0 0 0 0 0 0 0 0.25 0"/>
<feBlend mode="normal" in2="BackgroundImageFix" result="effect1_dropShadow_750_324"/>
<feBlend mode="normal" in="SourceGraphic" in2="effect1_dropShadow_750_324" result="shape"/>
</filter>
<filter id="filter6_d_750_324" x="820.069" y="48.8309" width="29.2651" height="31.4366" filterUnits="userSpaceOnUse" color-interpolation-filters="sRGB">
<feFlood flood-opacity="0" result="BackgroundImageFix"/>
<feColorMatrix in="SourceAlpha" type="matrix" values="0 0 0 0 0 0 0 0 0 0 0 0 0 0 0 0 0 0 127 0" result="hardAlpha"/>
<feOffset dy="4"/>
<feGaussianBlur stdDeviation="2"/>
<feComposite in2="hardAlpha" operator="out"/>
<feColorMatrix type="matrix" values="0 0 0 0 0 0 0 0 0 0 0 0 0 0 0 0 0 0 0.25 0"/>
<feBlend mode="normal" in2="BackgroundImageFix" result="effect1_dropShadow_750_324"/>
<feBlend mode="normal" in="SourceGraphic" in2="effect1_dropShadow_750_324" result="shape"/>
</filter>
<filter id="filter7_d_750_324" x="842.994" y="48.8964" width="25.4508" height="31.4738" filterUnits="userSpaceOnUse" color-interpolation-filters="sRGB">
<feFlood flood-opacity="0" result="BackgroundImageFix"/>
<feColorMatrix in="SourceAlpha" type="matrix" values="0 0 0 0 0 0 0 0 0 0 0 0 0 0 0 0 0 0 127 0" result="hardAlpha"/>
<feOffset dy="4"/>
<feGaussianBlur stdDeviation="2"/>
<feComposite in2="hardAlpha" operator="out"/>
<feColorMatrix type="matrix" values="0 0 0 0 0 0 0 0 0 0 0 0 0 0 0 0 0 0 0.25 0"/>
<feBlend mode="normal" in2="BackgroundImageFix" result="effect1_dropShadow_750_324"/>
<feBlend mode="normal" in="SourceGraphic" in2="effect1_dropShadow_750_324" result="shape"/>
</filter>
<filter id="filter8_d_750_324" x="724.788" y="56.6926" width="32.7395" height="23.5591" filterUnits="userSpaceOnUse" color-interpolation-filters="sRGB">
<feFlood flood-opacity="0" result="BackgroundImageFix"/>
<feColorMatrix in="SourceAlpha" type="matrix" values="0 0 0 0 0 0 0 0 0 0 0 0 0 0 0 0 0 0 127 0" result="hardAlpha"/>
<feOffset dy="4"/>
<feGaussianBlur stdDeviation="2"/>
<feComposite in2="hardAlpha" operator="out"/>
<feColorMatrix type="matrix" values="0 0 0 0 0 0 0 0 0 0 0 0 0 0 0 0 0 0 0.25 0"/>
<feBlend mode="normal" in2="BackgroundImageFix" result="effect1_dropShadow_750_324"/>
<feBlend mode="normal" in="SourceGraphic" in2="effect1_dropShadow_750_324" result="shape"/>
</filter>
<filter id="filter9_d_750_324" x="752.045" y="56.7068" width="21.788" height="23.8806" filterUnits="userSpaceOnUse" color-interpolation-filters="sRGB">
<feFlood flood-opacity="0" result="BackgroundImageFix"/>
<feColorMatrix in="SourceAlpha" type="matrix" values="0 0 0 0 0 0 0 0 0 0 0 0 0 0 0 0 0 0 127 0" result="hardAlpha"/>
<feOffset dy="4"/>
<feGaussianBlur stdDeviation="2"/>
<feComposite in2="hardAlpha" operator="out"/>
<feColorMatrix type="matrix" values="0 0 0 0 0 0 0 0 0 0 0 0 0 0 0 0 0 0 0.25 0"/>
<feBlend mode="normal" in2="BackgroundImageFix" result="effect1_dropShadow_750_324"/>
<feBlend mode="normal" in="SourceGraphic" in2="effect1_dropShadow_750_324" result="shape"/>
</filter>
<filter id="filter10_d_750_324" x="802.569" y="56.7068" width="21.788" height="23.8806" filterUnits="userSpaceOnUse" color-interpolation-filters="sRGB">
<feFlood flood-opacity="0" result="BackgroundImageFix"/>
<feColorMatrix in="SourceAlpha" type="matrix" values="0 0 0 0 0 0 0 0 0 0 0 0 0 0 0 0 0 0 127 0" result="hardAlpha"/>
<feOffset dy="4"/>
<feGaussianBlur stdDeviation="2"/>
<feComposite in2="hardAlpha" operator="out"/>
<feColorMatrix type="matrix" values="0 0 0 0 0 0 0 0 0 0 0 0 0 0 0 0 0 0 0.25 0"/>
<feBlend mode="normal" in2="BackgroundImageFix" result="effect1_dropShadow_750_324"/>
<feBlend mode="normal" in="SourceGraphic" in2="effect1_dropShadow_750_324" result="shape"/>
</filter>
<filter id="filter11_d_750_324" x="786.368" y="56.6926" width="21.9319" height="32.8517" filterUnits="userSpaceOnUse" color-interpolation-filters="sRGB">
<feFlood flood-opacity="0" result="BackgroundImageFix"/>
<feColorMatrix in="SourceAlpha" type="matrix" values="0 0 0 0 0 0 0 0 0 0 0 0 0 0 0 0 0 0 127 0" result="hardAlpha"/>
<feOffset dy="4"/>
<feGaussianBlur stdDeviation="2"/>
<feComposite in2="hardAlpha" operator="out"/>
<feColorMatrix type="matrix" values="0 0 0 0 0 0 0 0 0 0 0 0 0 0 0 0 0 0 0.25 0"/>
<feBlend mode="normal" in2="BackgroundImageFix" result="effect1_dropShadow_750_324"/>
<feBlend mode="normal" in="SourceGraphic" in2="effect1_dropShadow_750_324" result="shape"/>
</filter>
<filter id="filter12_d_750_324" x="768.089" y="56.6396" width="24.4626" height="23.7887" filterUnits="userSpaceOnUse" color-interpolation-filters="sRGB">
<feFlood flood-opacity="0" result="BackgroundImageFix"/>
<feColorMatrix in="SourceAlpha" type="matrix" values="0 0 0 0 0 0 0 0 0 0 0 0 0 0 0 0 0 0 127 0" result="hardAlpha"/>
<feOffset dy="4"/>
<feGaussianBlur stdDeviation="2"/>
<feComposite in2="hardAlpha" operator="out"/>
<feColorMatrix type="matrix" values="0 0 0 0 0 0 0 0 0 0 0 0 0 0 0 0 0 0 0.25 0"/>
<feBlend mode="normal" in2="BackgroundImageFix" result="effect1_dropShadow_750_324"/>
<feBlend mode="normal" in="SourceGraphic" in2="effect1_dropShadow_750_324" result="shape"/>
</filter>
<linearGradient id="paint0_linear_750_324" x1="113.611" y1="46.8" x2="162.086" y2="67.7619" gradientUnits="userSpaceOnUse">
<stop stop-color="#2298BD"/>
<stop offset="1" stop-color="#0ED7B5"/>
</linearGradient>
<clipPath id="clip0_750_324">
<rect width="59" height="67" fill="white" transform="translate(334 20)"/>
</clipPath>
<clipPath id="clip1_750_324">
<rect width="60" height="70" fill="white" transform="matrix(-1 0 0 1 646 14)"/>
</clipPath>
<clipPath id="clip2_750_324">
<rect width="172" height="53" fill="white" transform="translate(701 31)"/>
</clipPath>
</defs>
</svg>
