<svg width="754" height="70" viewBox="0 0 754 70" fill="none" xmlns="http://www.w3.org/2000/svg">
<g clip-path="url(#clip0_764_259)">
<g filter="url(#filter0_d_764_259)">
<path d="M210.187 55.715L206 2.10022L256 2.20796L251.573 55.715L231.189 61.8998L210.187 55.715Z" fill="#E34F26"/>
</g>
<path d="M231.189 56.7218V7.2063L251.779 7.27813L248.107 51.5794L231.189 56.7218Z" fill="#EF652A"/>
<path d="M246.117 19.5764L246.7 13.0316H215.025L216.775 33.0969H238.635L237.778 41.655L230.777 43.6323L223.674 41.475L223.296 36.3689H217.016L217.874 46.797L230.777 50.5726L243.783 46.797L245.533 26.4444H222.575L221.923 19.5764H246.117Z" fill="white"/>
</g>
<g filter="url(#filter1_d_764_259)">
<path d="M0 2H60V62H0V2Z" fill="#F0DB4F"/>
<path d="M55.0893 47.6901C54.6502 44.9525 52.865 42.654 47.5779 40.5095C45.7414 39.6654 43.6939 39.0609 43.0836 37.6692C42.8669 36.8593 42.8384 36.4031 42.9753 35.9126C43.3688 34.3213 45.2681 33.8251 46.7738 34.2814C47.7433 34.6065 48.6616 35.3537 49.2148 36.5457C51.8042 34.8689 51.7985 34.8803 53.6065 33.7282C52.9449 32.7016 52.5912 32.2282 52.1578 31.7891C50.6008 30.0495 48.4791 29.1541 45.0855 29.2225C44.4981 29.2967 43.905 29.3765 43.3175 29.4507C41.6236 29.8784 40.0095 30.7682 39.0627 31.9602C36.2224 35.1826 37.0323 40.8232 40.4886 43.1446C43.8935 45.6997 48.8954 46.2815 49.5342 48.6712C50.1559 51.597 47.3841 52.5438 44.6293 52.2073C42.5989 51.7853 41.4696 50.7529 40.249 48.8765C38.002 50.1769 38.002 50.1769 35.6921 51.5058C36.2396 52.7035 36.8156 53.2453 37.7339 54.2834C42.0799 58.6921 52.9563 58.4754 54.9069 51.8024C54.9867 51.5742 55.5115 50.0457 55.0893 47.6901V47.6901ZM32.6179 29.5761H27.0057C27.0057 34.424 26.9829 39.2377 26.9829 44.0856C26.9829 47.1711 27.1426 50 26.6407 50.867C25.8194 52.5722 23.6921 52.3612 22.7225 52.0304C21.7358 51.5456 21.2339 50.8555 20.6521 49.8803C20.4924 49.6008 20.3727 49.3841 20.3327 49.367C18.8099 50.2966 17.2928 51.2319 15.77 52.1616C16.5286 53.7187 17.6464 55.0704 19.0779 55.9486C21.2167 57.2319 24.0913 57.6254 27.097 56.9353C29.0533 56.365 30.7414 55.1844 31.6255 53.3879C32.903 51.0324 32.6293 48.1806 32.6179 45.0266C32.6464 39.8822 32.6179 34.7377 32.6179 29.5761Z" fill="#323330"/>
</g>
<g clip-path="url(#clip1_764_259)" filter="url(#filter2_d_764_259)">
<g filter="url(#filter3_d_764_259)">
<path d="M112.187 55.7145L108 2.10059L158 2.20833L153.573 55.7145L133.189 61.8993L112.187 55.7145Z" fill="#1B73BA"/>
</g>
<path d="M133.189 56.7215V7.20679L153.779 7.27861L150.107 51.5794L133.189 56.7215Z" fill="#1C88C7"/>
<path d="M148.666 13.5356H116.991L117.849 20.0077H132.88L118.09 26.6603L118.947 32.9169H140.739L139.949 41.6545L132.571 43.165L125.879 41.3672L125.365 36.4048H119.222L120.045 46.7251L133.223 50.5726L145.852 46.3656L147.465 26.1925H134.115L148.665 19.8641L148.666 13.5356Z" fill="white"/>
</g>
<g clip-path="url(#clip2_764_259)">
<g filter="url(#filter4_d_764_259)">
<path fill-rule="evenodd" clip-rule="evenodd" d="M320 26C322.133 18.0003 327.467 14 336 14C348.8 14 350.4 23 356.8 24.5C361.067 25.5003 364.8 24.0003 368 20C365.867 27.9997 360.533 32 352 32C339.2 32 337.6 23 331.2 21.5C326.933 20.4997 323.2 21.9997 320 26ZM304 44C306.133 36.0003 311.467 32 320 32C332.8 32 334.4 41 340.8 42.5C345.067 43.5003 348.8 42.0003 352 38C349.867 45.9997 344.533 50 336 50C323.2 50 321.6 41 315.2 39.5C310.933 38.4997 307.2 39.9997 304 44Z" fill="url(#paint0_linear_764_259)"/>
</g>
</g>
<g clip-path="url(#clip3_764_259)">
<path d="M448.5 38.0107C451.7 38.0107 454.293 35.3196 454.293 32C454.293 28.6803 451.7 25.9893 448.5 25.9893C445.3 25.9893 442.707 28.6803 442.707 32C442.707 35.3196 445.3 38.0107 448.5 38.0107Z" fill="#61DAFB"/>
<path d="M448.5 44.3147C465.669 44.3147 479.587 38.8012 479.587 32C479.587 25.1989 465.669 19.6854 448.5 19.6854C431.331 19.6854 417.413 25.1989 417.413 32C417.413 38.8012 431.331 44.3147 448.5 44.3147Z" stroke="#61DAFB" stroke-width="2"/>
<path d="M438.221 38.1573C446.805 53.5835 458.366 63.3321 464.043 59.9316C469.721 56.531 467.364 41.2689 458.779 25.8427C450.195 10.4165 438.634 0.667854 432.957 4.06844C427.279 7.46903 429.636 22.7311 438.221 38.1573Z" stroke="#61DAFB" stroke-width="2"/>
<path d="M438.221 25.8426C429.636 41.2688 427.279 56.5309 432.957 59.9315C438.634 63.3321 450.195 53.5834 458.779 38.1573C467.364 22.7311 469.721 7.46899 464.043 4.0684C458.366 0.66781 446.805 10.4165 438.221 25.8426Z" stroke="#61DAFB" stroke-width="2"/>
</g>
<path d="M540.147 7.15405L541.237 9.20405C541.474 9.57384 541.751 9.91713 542.061 10.2281C542.974 11.1411 543.843 12.0981 544.621 13.1231C546.469 15.5501 547.716 18.2451 548.607 21.1631C549.141 22.9451 549.431 24.7711 549.453 26.6191C549.543 32.1421 547.649 36.8851 543.819 40.8271C543.198 41.4519 542.528 42.0255 541.815 42.5421C541.435 42.5421 541.258 42.2421 541.102 41.9851C540.802 41.4851 540.634 40.9381 540.545 40.3821C540.411 39.7141 540.322 39.0461 540.367 38.3551V38.0431C540.345 37.9761 540.011 7.31105 540.144 7.15505L540.147 7.15405Z" fill="#599636"/>
<path d="M540.147 7.08796C540.102 6.99796 540.057 7.06596 540.013 7.10996C540.035 7.55496 539.879 7.95596 539.633 8.33496C539.366 8.71496 539.009 9.00296 538.653 9.31496C536.671 11.03 535.113 13.101 533.865 15.417C532.217 18.535 531.349 21.875 531.105 25.394C530.995 26.664 531.505 31.14 531.907 32.431C532.997 35.861 534.957 38.733 537.507 41.227C538.131 41.827 538.799 42.385 539.489 42.919C539.689 42.919 539.712 42.741 539.756 42.607C539.844 42.3226 539.911 42.0321 539.956 41.738C540.156 40.625 540.268 39.511 540.401 38.398L540.156 7.08796H540.147Z" fill="#6CAC48"/>
<path d="M541.24 43.9001C541.285 43.3881 541.54 42.965 541.797 42.542C541.53 42.432 541.329 42.2081 541.173 41.9621C541.039 41.7391 540.928 41.4621 540.839 41.2271C540.527 40.2921 540.459 39.312 540.371 38.354V37.774C540.261 37.864 540.237 38.62 540.237 38.732C540.17 39.756 540.037 40.759 539.837 41.738C539.77 42.138 539.727 42.54 539.481 42.896C539.481 42.941 539.481 42.986 539.503 43.052C539.903 44.232 540.015 45.435 540.083 46.66V47.105C540.083 47.639 540.061 47.5281 540.506 47.7051C540.684 47.7721 540.886 47.7951 541.063 47.9281C541.197 47.9281 541.219 47.8181 541.219 47.7281L541.152 46.993V44.9431C541.13 44.5871 541.197 44.23 541.242 43.896L541.24 43.9001Z" fill="#C2BFBF"/>
<g filter="url(#filter5_d_764_259)">
<path d="M558.151 34.5863V36.7072C558.148 36.7912 558.153 36.8752 558.165 36.9584C558.193 37.2096 558.347 37.3628 558.573 37.4332C558.785 37.4889 559 37.5309 559.217 37.5588C559.342 37.5731 559.384 37.6283 559.399 37.7631C559.413 38.2379 559.371 38.294 558.91 38.2655C557.836 38.2093 556.761 38.196 555.687 38.2655H555.585C555.25 38.2797 555.222 38.2512 555.222 37.9162C555.222 37.8601 555.236 37.7906 555.236 37.7345C555.236 37.6324 555.306 37.5813 555.404 37.5813C555.629 37.5537 555.837 37.4976 556.047 37.4557C556.34 37.3863 556.507 37.2045 556.535 36.9114C556.576 36.5908 556.576 36.2559 556.576 35.9342L556.59 32.1949C556.595 32.0864 556.569 31.9789 556.514 31.8849C556.46 31.7908 556.38 31.7142 556.284 31.6639C556.032 31.5236 555.765 31.4113 555.488 31.329C555.404 31.3014 555.32 31.2881 555.251 31.2452C555.047 31.1472 555.041 30.9665 555.236 30.8541C555.306 30.8133 555.39 30.7847 555.473 30.7704C556.32 30.6454 557.152 30.435 557.957 30.1424C558.124 30.0862 558.166 30.1016 558.181 30.268C558.196 30.3701 558.181 30.4927 558.167 30.5886C558.139 30.7704 558.14 30.9511 558.14 31.1196C558.14 31.1891 558.154 31.2595 558.223 31.3014C558.293 31.3433 558.363 31.3014 558.427 31.2605C558.721 31.0359 559.014 30.8276 559.334 30.6479C559.794 30.3967 560.284 30.173 560.815 30.1036C561.458 30.0199 562.015 30.1873 562.504 30.606C562.706 30.787 562.884 30.9933 563.034 31.2197C563.174 31.4239 563.187 31.429 563.369 31.2891C563.9 30.898 564.457 30.5498 565.058 30.2986C565.686 30.0331 566.328 29.9923 566.969 30.2149C567.625 30.4518 568.072 30.9123 568.337 31.5403C568.562 32.0427 568.658 32.5614 568.658 33.1026V36.842C568.658 37.0932 568.76 37.2505 569.007 37.373C569.273 37.4751 569.566 37.5262 569.845 37.5823C570.026 37.6232 570.026 37.6232 570.026 37.807C569.999 38.2665 569.957 38.2951 569.51 38.2665C568.39 38.2037 567.267 38.2037 566.147 38.2665C565.923 38.2808 565.923 38.2808 565.91 38.0571V37.9877C565.896 37.6099 565.896 37.6099 566.259 37.5282L566.622 37.4302C566.745 37.4013 566.854 37.3319 566.933 37.2331C567.011 37.1344 567.054 37.0121 567.055 36.8859L567.096 35.8393L567.068 33.1047C567.058 32.8605 567.006 32.6199 566.915 32.393C566.566 31.5413 565.799 31.235 565.059 31.3187C564.5 31.3749 564.012 31.5975 563.551 31.9192C563.453 31.9886 563.384 32.0723 563.398 32.2122C563.524 33.1057 563.439 33.9992 563.454 34.8917V36.8318C563.454 37.181 563.594 37.3485 563.929 37.4322L564.573 37.5721C564.671 37.5864 564.726 37.6283 564.726 37.7396V37.8417C564.711 38.2328 564.685 38.2501 564.293 38.246C563.177 38.1899 562.06 38.2052 560.958 38.246C560.58 38.2603 560.549 38.2185 560.567 37.8376C560.581 37.613 560.608 37.6007 560.818 37.5588L561.277 37.4751C561.686 37.3914 561.836 37.2382 561.864 36.8052L561.904 35.8699L561.877 33.0649C561.849 32.7156 561.775 32.3807 561.584 32.0601C561.305 31.5434 560.869 31.2789 560.272 31.2503C559.671 31.2095 559.141 31.4321 558.638 31.7098C558.289 31.9141 558.135 32.1561 558.163 32.5615V34.5986L558.151 34.5863ZM584.442 34.6711V36.6388C584.444 36.7787 584.453 36.9184 584.469 37.0575C584.475 37.1501 584.511 37.2383 584.571 37.3089C584.632 37.3794 584.713 37.4284 584.804 37.4485C585.045 37.5187 585.293 37.5609 585.543 37.5741C585.683 37.5884 585.711 37.6436 585.725 37.7559V37.8539C585.711 38.342 585.656 38.3982 585.181 38.3706C584.119 38.3012 583.06 38.3145 581.999 38.3706L581.591 38.3849C581.507 38.3849 581.489 38.3441 581.465 38.2869C581.424 38.0936 581.424 37.894 581.465 37.7008C581.479 37.617 581.534 37.5987 581.618 37.5752C581.822 37.5476 581.996 37.5057 582.19 37.4731C582.539 37.3893 582.665 37.2484 582.678 36.8869L582.719 35.7147V32.2817C582.719 32.0305 582.621 31.8773 582.398 31.765C582.147 31.6251 581.882 31.5281 581.602 31.43C581.518 31.4025 581.434 31.3739 581.365 31.332C581.183 31.2064 581.161 31.0257 581.337 30.8858C581.417 30.8207 581.514 30.7815 581.616 30.7735C582.51 30.6336 583.375 30.4385 584.212 30.1036C584.31 30.0628 584.352 30.0893 584.394 30.173C584.435 30.2568 584.45 30.3548 584.434 30.4518L584.394 31.1074C584.394 31.1911 584.353 31.3116 584.421 31.3443C584.505 31.4004 584.561 31.2748 584.631 31.2422C585.043 30.8965 585.498 30.6058 585.985 30.3773C586.417 30.173 586.863 30.0423 587.366 30.0709C588.301 30.1271 588.971 30.6019 589.403 31.4249C589.628 31.8579 589.724 32.3317 589.766 32.8208L589.807 33.8419L589.821 36.9257C589.835 37.1626 589.919 37.3168 590.156 37.4006C590.401 37.4824 590.654 37.5432 590.909 37.5823C591.134 37.6099 591.146 37.6518 591.161 37.8611V37.9305C591.133 38.4053 591.104 38.4186 590.63 38.39C589.588 38.3342 588.545 38.3342 587.504 38.39C587.364 38.4043 587.225 38.39 587.096 38.4043C587.012 38.4043 586.956 38.39 586.942 38.3063C586.915 38.1245 586.886 37.9438 586.928 37.7477C586.942 37.664 586.984 37.6221 587.081 37.6078L587.725 37.5057C587.949 37.4496 588.074 37.3015 588.102 37.0973L588.13 36.7062L588.116 33.7899C588.116 33.4549 588.101 33.12 588.032 32.7851C587.864 32.0703 587.32 31.5597 586.582 31.4883C585.939 31.4188 585.357 31.5863 584.824 31.9345C584.558 32.1019 584.446 32.3388 584.446 32.6319V34.7395C584.446 34.6987 584.446 34.6987 584.46 34.6987L584.442 34.6711Z" fill="#47474A"/>
</g>
<g filter="url(#filter6_d_764_259)">
<path d="M625.313 30.7214C625.16 29.7024 624.782 28.7956 624.127 28.0001C623.555 27.2974 622.816 26.7502 621.977 26.4092C621.099 26.0467 620.163 25.9344 619.214 25.9068C618.823 25.8925 613.493 25.9763 613.102 25.9068C613.003 25.8925 612.934 25.9211 612.877 26.0049C612.807 26.107 612.737 26.2142 612.695 26.3255C612.528 26.7033 612.528 26.6747 612.932 26.7299C613.267 26.786 613.588 26.8136 613.909 26.9116C614.202 27.0097 614.412 27.1771 614.481 27.4978C614.509 27.6509 614.537 32.5625 614.537 34.8519L614.481 36.4857C614.467 36.6113 614.453 36.7369 614.412 36.8482C614.355 37.0156 614.258 37.1545 614.091 37.226C613.907 37.3127 613.708 37.3646 613.505 37.3792C613.127 37.42 613.072 37.4353 612.946 37.854L612.905 38.0072C612.878 38.1889 612.891 38.2165 613.073 38.2165L617.245 38.2573L618.879 38.2298L620.009 38.0899C621.293 37.853 622.438 37.322 623.414 36.4714C623.971 35.9789 624.427 35.3814 624.754 34.713C625.145 33.9319 625.312 33.0792 625.354 32.2153C625.423 31.7272 625.395 31.2249 625.313 30.7225V30.7214ZM623.289 32.7024C623.233 33.5959 623.052 34.4608 622.592 35.242C622.006 36.261 621.168 36.9728 620.01 37.2229C619.508 37.325 619.006 37.3761 618.479 37.3067C618.101 37.2658 617.739 37.2229 617.39 37.0973C616.762 36.8727 616.539 36.4847 616.525 35.872L616.511 27.4579C616.511 26.9555 616.736 26.8453 617.097 26.8299C617.641 26.7891 618.2 26.8024 618.744 26.8575C619.324 26.9135 619.892 27.051 620.433 27.266C620.835 27.4335 621.207 27.6645 621.536 27.9501C622.29 28.5934 622.792 29.4001 623.068 30.3497C623.292 31.1176 623.333 31.8988 623.292 32.68L623.289 32.7024ZM636.911 34.0707C636.911 33.987 636.911 33.9176 636.897 33.8338C636.771 33.0659 636.366 32.4798 635.739 32.0336C635.334 31.7405 634.874 31.5455 634.399 31.4056C634.315 31.378 634.246 31.3494 634.162 31.3362C634.176 31.2667 634.218 31.2524 634.26 31.2381C634.539 31.0982 634.804 30.9451 635.041 30.7357C635.474 30.3732 635.756 29.926 635.906 29.3817C635.99 29.0887 635.99 28.7956 635.962 28.4882C635.94 28.1287 635.836 27.7789 635.66 27.4647C635.483 27.1506 635.239 26.8803 634.943 26.6737C634.3 26.1989 633.547 26.0038 632.766 25.9896C631.259 25.962 629.739 25.9896 628.233 25.9896C627.8 25.9896 627.368 26.0171 626.92 25.9487C626.837 25.9344 626.716 25.9079 626.655 26.0049C626.553 26.1866 626.43 26.3674 626.389 26.5767C626.375 26.6747 626.404 26.7299 626.515 26.7442L627.478 26.8841C627.856 26.9402 628.121 27.1495 628.148 27.4845C628.175 27.7159 628.189 27.9488 628.189 28.1819L628.161 30.7909L628.147 35.9537C628.147 36.26 628.106 36.5541 628.049 36.8604C628.035 36.9577 627.993 37.0489 627.929 37.1232C627.865 37.1974 627.781 37.2516 627.686 37.2791C627.407 37.3628 627.142 37.4466 626.849 37.4466C626.771 37.4391 626.692 37.4585 626.626 37.5016C626.56 37.5446 626.511 37.6087 626.486 37.6835C626.43 37.8091 626.384 37.949 626.361 38.0746C626.333 38.242 626.375 38.2992 626.543 38.2788C626.668 38.2645 631.273 38.3768 632.138 38.2931C632.655 38.2369 633.159 38.1675 633.673 38.0143C634.551 37.7355 635.362 37.3302 636.003 36.646C636.534 36.0874 636.841 35.4176 636.868 34.6364C636.909 34.4547 636.909 34.2739 636.909 34.0779L636.911 34.0707ZM630.143 28.3524L630.184 27.2363C630.184 27.027 630.268 26.93 630.477 26.8871C630.812 26.8177 631.147 26.8463 631.482 26.8595C631.817 26.8871 632.137 26.929 632.472 27.027C633.085 27.2088 633.561 27.558 633.841 28.1431C633.967 28.4091 634.034 28.6999 634.036 28.9947C634.05 29.3858 634.021 29.7626 633.868 30.1384C633.631 30.6551 633.255 30.99 632.71 31.088C632.165 31.1861 630.617 31.1442 630.38 31.1442C630.171 31.1442 630.155 31.1166 630.155 30.9073V29.5931C630.122 29.1844 630.118 28.774 630.141 28.3647L630.143 28.3524ZM634.677 35.8597C634.44 36.4877 634.007 36.9217 633.393 37.1566C633.058 37.2822 632.723 37.3608 632.372 37.3383C631.939 37.324 631.507 37.3383 631.075 37.2546C630.489 37.129 630.224 36.5704 630.182 36.1661C630.112 35.4543 630.154 34.7283 630.141 34.1984V32.3563C630.141 32.1316 630.169 32.0632 630.406 32.0632L631.719 32.0775L632.612 32.1796C633.24 32.3195 633.812 32.5574 634.259 33.0445C634.622 33.4356 634.818 33.9094 634.86 34.4261C634.9 34.9142 634.874 35.389 634.692 35.8495L634.677 35.8597Z" fill="#C2BFBF"/>
</g>
<g filter="url(#filter7_d_764_259)">
<path d="M599.22 31.6557L599.583 31.7119C599.974 31.7262 600.434 31.5863 600.573 31.042C600.65 30.7821 600.65 30.5055 600.573 30.2456C600.49 30.2456 600.448 30.315 600.406 30.3436C600.197 30.511 599.96 30.6091 599.708 30.6366C599.206 30.6928 598.704 30.6642 598.216 30.4835L597.531 30.2466C597.054 30.0903 596.552 30.0245 596.051 30.0526C595.339 30.1087 594.669 30.3456 594.041 30.6806C593.371 31.0431 592.898 31.5873 592.673 32.3276C592.547 32.7606 592.533 33.2058 592.589 33.653C592.729 34.6721 593.259 35.3839 594.208 35.7606C594.264 35.7749 594.306 35.8015 594.361 35.8168C594.486 35.8862 594.501 35.9567 594.388 36.0537L594.039 36.2906L593.202 36.8073C592.993 36.9329 592.965 37.0319 593.034 37.2535C593.117 37.5142 593.272 37.7463 593.481 37.9234C593.672 38.0877 593.889 38.2198 594.123 38.3145C594.276 38.3839 594.276 38.4166 594.137 38.5391L593.341 39.111C593.075 39.3152 592.81 39.5194 592.587 39.7808C592.432 39.9465 592.321 40.1478 592.262 40.3668C592.204 40.5859 592.2 40.816 592.252 41.0368C592.356 41.5212 592.61 41.9606 592.977 42.2928C593.34 42.6288 593.781 42.8686 594.261 42.9902C595.042 43.2149 595.852 43.2271 596.647 43.0739C597.791 42.8646 598.791 42.3591 599.578 41.4973C600.122 40.9255 600.443 40.2556 600.471 39.4551C600.502 38.9921 600.367 38.5333 600.091 38.1603C599.815 37.7873 599.416 37.5242 598.964 37.4179L598.21 37.278L595.908 37.0738C595.657 37.0595 595.405 37.0177 595.196 36.8921C594.931 36.7246 594.861 36.404 595.029 36.1946C595.154 36.0415 595.307 35.9434 595.503 35.9291L595.95 35.8883C596.832 35.7985 597.661 35.4211 598.307 34.8141C598.653 34.4944 598.9 34.0827 599.019 33.6275C599.187 33.0271 599.187 32.4022 599.047 31.7895C599.006 31.6363 599.019 31.622 599.214 31.6496L599.22 31.6557ZM595.8 38.6065C595.883 38.6208 595.967 38.6065 596.051 38.6065C596.637 38.6341 597.237 38.676 597.809 38.8312C597.996 38.8863 598.178 38.9563 598.353 39.0405C598.912 39.3468 599.121 39.8778 599.051 40.4497C598.967 41.0776 598.618 41.5239 598.074 41.818C597.711 42.0222 597.306 42.111 596.887 42.1529C596.734 42.1672 596.594 42.1529 596.441 42.1529C595.953 42.1672 595.478 42.112 595.017 41.916C594.697 41.7904 594.431 41.6096 594.194 41.3574C593.706 40.8693 593.48 39.9758 594.209 39.2498C594.655 38.8414 595.158 38.5524 595.8 38.6065V38.6065ZM597.39 34.2524C597.097 34.9917 596.455 35.2154 595.814 35.1173C595.228 35.0336 594.795 34.713 594.517 34.182C594.155 33.4703 594.058 32.732 594.266 31.9631C594.419 31.3913 594.768 30.9583 595.382 30.8603C596.163 30.7204 596.914 31.0002 597.308 31.7813C597.512 32.1591 597.601 32.6186 597.601 33.2742C597.587 33.5397 597.531 33.9022 597.392 34.2514L597.39 34.2524ZM579.809 33.3028C579.683 32.5492 579.404 31.8651 578.888 31.2932C578.12 30.4416 577.144 30.0679 576.041 30.0648C575.078 30.0505 574.172 30.3303 573.361 30.8327C572.564 31.3097 571.98 32.0737 571.729 32.9679C571.492 33.7776 571.504 34.6017 571.688 35.4237C572.176 37.6293 573.879 38.5769 575.915 38.438C576.516 38.3972 577.087 38.2011 577.631 37.9356C578.44 37.5578 579.027 36.9584 579.431 36.163C579.752 35.5074 579.89 34.809 579.877 34.0135L579.808 33.3018L579.809 33.3028ZM577.828 36.4009C577.728 36.7149 577.539 36.993 577.284 37.2012C577.028 37.4093 576.718 37.5386 576.39 37.5731C575.777 37.6569 575.204 37.5037 574.688 37.1402C574.316 36.8663 574.014 36.5075 573.809 36.0935C573.237 34.9213 573.139 33.6939 573.431 32.4379C573.525 32.0492 573.728 31.6956 574.017 31.4188C574.534 30.944 575.133 30.8327 575.804 30.9726C576.447 31.1125 576.934 31.4607 577.336 31.9917C577.737 32.5227 577.922 33.1353 578.033 33.7786C578.089 34.0993 578.089 34.4342 578.102 34.6435C578.102 35.3134 578.046 35.8689 577.837 36.4019L577.828 36.4009ZM610.3 33.4151C610.197 32.6054 609.895 31.8661 609.322 31.2524C608.569 30.4294 607.592 30.0801 606.504 30.0658C605.569 30.0515 604.704 30.317 603.908 30.7776C603.015 31.3085 602.401 32.0611 602.164 33.0802C601.881 34.192 602 35.368 602.499 36.4009C602.959 37.3781 603.741 38.0061 604.774 38.2849C605.918 38.5912 607.007 38.4523 608.067 37.9356C608.988 37.4894 609.644 36.792 610.021 35.8423C610.245 35.2838 610.327 34.6844 610.341 33.9859C610.356 33.8603 610.327 33.6367 610.301 33.4141L610.3 33.4151ZM608.374 36.2202C608.149 36.9737 607.676 37.4618 606.881 37.5742C606.295 37.6579 605.737 37.518 605.234 37.1831C604.801 36.89 604.494 36.4989 604.271 36.0394C604.02 35.5513 603.88 35.0346 603.825 34.5047C603.741 33.8491 603.741 33.2078 603.894 32.5513C603.923 32.4218 603.965 32.2956 604.02 32.1745C604.411 31.1972 605.276 30.751 606.295 30.9746C606.979 31.1278 607.495 31.5056 607.886 32.0775C608.263 32.636 608.444 33.2497 608.529 33.9155C608.57 34.181 608.585 34.4597 608.57 34.6966C608.57 35.2409 608.529 35.7433 608.366 36.2314L608.374 36.2202Z" fill="#47474A"/>
</g>
<g clip-path="url(#clip4_764_259)" filter="url(#filter8_d_764_259)">
<g filter="url(#filter9_d_764_259)">
<path d="M719.48 2.80067C720.98 1.95129 722.893 1.94754 724.355 2.80067L746.75 15.425C748.151 16.2125 749.088 17.7744 749.075 19.3888V44.7013C749.084 46.3832 748.055 47.9788 746.577 48.7513L724.303 61.3175C723.541 61.7386 722.68 61.9479 721.81 61.9239C720.94 61.8998 720.092 61.6432 719.354 61.1807L712.67 57.3182C712.214 57.0463 711.702 56.8307 711.38 56.39C711.665 56.0075 712.171 55.9588 712.584 55.79C713.514 55.4938 714.365 55.04 715.22 54.56C715.436 54.41 715.7 54.4663 715.906 54.6013L721.606 57.8975C722.013 58.1319 722.426 57.8225 722.774 57.6257L744.646 45.2825C744.916 45.1513 745.066 44.8663 745.044 44.57V19.5013C745.074 19.1638 744.881 18.8563 744.575 18.7194L722.356 6.20754C722.228 6.11898 722.076 6.07139 721.921 6.07105C721.765 6.07072 721.613 6.11766 721.484 6.20567L699.297 18.7438C698.997 18.8807 698.791 19.1844 698.829 19.5219V44.5907C698.802 44.8869 698.96 45.1663 699.232 45.2938L705.161 48.6407C706.274 49.2407 707.641 49.5782 708.867 49.1375C709.404 48.9353 709.866 48.5739 710.191 48.1017C710.517 47.6295 710.69 47.0691 710.688 46.4957L710.694 21.5769C710.667 21.2075 711.016 20.9019 711.374 20.9394H714.224C714.599 20.93 714.894 21.3275 714.843 21.6988L714.837 46.775C714.839 49.0025 713.924 51.425 711.864 52.5182C709.325 53.8307 706.186 53.555 703.677 52.2932L697.302 48.7682C695.802 48.0182 694.796 46.3982 694.805 44.7182V19.4057C694.811 18.583 695.037 17.7769 695.46 17.0711C695.883 16.3652 696.486 15.7852 697.209 15.3913L719.48 2.80067ZM725.937 20.3469C729.176 20.1594 732.642 20.2232 735.556 21.8188C737.812 23.0413 739.062 25.6063 739.104 28.115C739.04 28.4525 738.687 28.64 738.365 28.6157C737.427 28.6138 736.486 28.6288 735.545 28.61C735.146 28.625 734.915 28.2575 734.864 27.905C734.594 26.705 733.94 25.5182 732.811 24.9388C731.079 24.0707 729.069 24.1138 727.179 24.1325C725.799 24.2075 724.316 24.3257 723.147 25.1357C722.247 25.7507 721.977 27.0107 722.298 27.9894C722.598 28.7075 723.429 28.9382 724.106 29.1519C728.009 30.1719 732.144 30.0894 735.974 31.415C737.559 31.9625 739.109 33.0275 739.653 34.6869C740.362 36.9107 740.052 39.5694 738.472 41.3544C737.189 42.8244 735.322 43.6044 733.456 44.0582C730.976 44.6113 728.403 44.6244 725.885 44.3769C723.517 44.1069 721.053 43.4844 719.225 41.8719C717.661 40.5144 716.9 38.3994 716.975 36.3594C716.994 36.0144 717.337 35.7744 717.669 35.8025H720.481C720.86 35.7763 721.137 36.1025 721.156 36.4588C721.331 37.5838 721.76 38.8025 722.757 39.4588C724.681 40.7 727.094 40.6138 729.296 40.6494C731.12 40.5688 733.167 40.5444 734.658 39.3369C735.446 38.6488 735.676 37.4994 735.464 36.5094C735.234 35.6732 734.339 35.285 733.589 35.0094C729.736 33.7907 725.555 34.2332 721.739 32.8532C720.191 32.3057 718.692 31.2707 718.098 29.6788C717.267 27.4288 717.648 24.6407 719.397 22.9157C721.085 21.2 723.56 20.5382 725.904 20.3019L725.937 20.3469Z" fill="#8CC84B"/>
</g>
</g>
<defs>
<filter id="filter0_d_764_259" x="206" y="-1.89978" width="59" height="67.7996" filterUnits="userSpaceOnUse" color-interpolation-filters="sRGB">
<feFlood flood-opacity="0" result="BackgroundImageFix"/>
<feColorMatrix in="SourceAlpha" type="matrix" values="0 0 0 0 0 0 0 0 0 0 0 0 0 0 0 0 0 0 127 0" result="hardAlpha"/>
<feOffset dx="5"/>
<feGaussianBlur stdDeviation="2"/>
<feComposite in2="hardAlpha" operator="out"/>
<feColorMatrix type="matrix" values="0 0 0 0 0 0 0 0 0 0 0 0 0 0 0 0 0 0 0.25 0"/>
<feBlend mode="normal" in2="BackgroundImageFix" result="effect1_dropShadow_764_259"/>
<feBlend mode="normal" in="SourceGraphic" in2="effect1_dropShadow_764_259" result="shape"/>
</filter>
<filter id="filter1_d_764_259" x="0" y="2" width="74" height="68" filterUnits="userSpaceOnUse" color-interpolation-filters="sRGB">
<feFlood flood-opacity="0" result="BackgroundImageFix"/>
<feColorMatrix in="SourceAlpha" type="matrix" values="0 0 0 0 0 0 0 0 0 0 0 0 0 0 0 0 0 0 127 0" result="hardAlpha"/>
<feOffset dx="10" dy="4"/>
<feGaussianBlur stdDeviation="2"/>
<feComposite in2="hardAlpha" operator="out"/>
<feColorMatrix type="matrix" values="0 0 0 0 0 0 0 0 0 0 0 0 0 0 0 0 0 0 0.25 0"/>
<feBlend mode="normal" in2="BackgroundImageFix" result="effect1_dropShadow_764_259"/>
<feBlend mode="normal" in="SourceGraphic" in2="effect1_dropShadow_764_259" result="shape"/>
</filter>
<filter id="filter2_d_764_259" x="104" y="2" width="58" height="68" filterUnits="userSpaceOnUse" color-interpolation-filters="sRGB">
<feFlood flood-opacity="0" result="BackgroundImageFix"/>
<feColorMatrix in="SourceAlpha" type="matrix" values="0 0 0 0 0 0 0 0 0 0 0 0 0 0 0 0 0 0 127 0" result="hardAlpha"/>
<feOffset dy="4"/>
<feGaussianBlur stdDeviation="2"/>
<feComposite in2="hardAlpha" operator="out"/>
<feColorMatrix type="matrix" values="0 0 0 0 0 0 0 0 0 0 0 0 0 0 0 0 0 0 0.25 0"/>
<feBlend mode="normal" in2="BackgroundImageFix" result="effect1_dropShadow_764_259"/>
<feBlend mode="normal" in="SourceGraphic" in2="effect1_dropShadow_764_259" result="shape"/>
</filter>
<filter id="filter3_d_764_259" x="104" y="2.10059" width="58" height="67.7987" filterUnits="userSpaceOnUse" color-interpolation-filters="sRGB">
<feFlood flood-opacity="0" result="BackgroundImageFix"/>
<feColorMatrix in="SourceAlpha" type="matrix" values="0 0 0 0 0 0 0 0 0 0 0 0 0 0 0 0 0 0 127 0" result="hardAlpha"/>
<feOffset dy="4"/>
<feGaussianBlur stdDeviation="2"/>
<feComposite in2="hardAlpha" operator="out"/>
<feColorMatrix type="matrix" values="0 0 0 0 0 0 0 0 0 0 0 0 0 0 0 0 0 0 0.25 0"/>
<feBlend mode="normal" in2="BackgroundImageFix" result="effect1_dropShadow_764_259"/>
<feBlend mode="normal" in="SourceGraphic" in2="effect1_dropShadow_764_259" result="shape"/>
</filter>
<filter id="filter4_d_764_259" x="300" y="14" width="72" height="44" filterUnits="userSpaceOnUse" color-interpolation-filters="sRGB">
<feFlood flood-opacity="0" result="BackgroundImageFix"/>
<feColorMatrix in="SourceAlpha" type="matrix" values="0 0 0 0 0 0 0 0 0 0 0 0 0 0 0 0 0 0 127 0" result="hardAlpha"/>
<feOffset dy="4"/>
<feGaussianBlur stdDeviation="2"/>
<feComposite in2="hardAlpha" operator="out"/>
<feColorMatrix type="matrix" values="0 0 0 0 0 0 0 0 0 0 0 0 0 0 0 0 0 0 0.25 0"/>
<feBlend mode="normal" in2="BackgroundImageFix" result="effect1_dropShadow_764_259"/>
<feBlend mode="normal" in="SourceGraphic" in2="effect1_dropShadow_764_259" result="shape"/>
</filter>
<filter id="filter5_d_764_259" x="551.094" y="30.067" width="44.0668" height="16.3373" filterUnits="userSpaceOnUse" color-interpolation-filters="sRGB">
<feFlood flood-opacity="0" result="BackgroundImageFix"/>
<feColorMatrix in="SourceAlpha" type="matrix" values="0 0 0 0 0 0 0 0 0 0 0 0 0 0 0 0 0 0 127 0" result="hardAlpha"/>
<feOffset dy="4"/>
<feGaussianBlur stdDeviation="2"/>
<feComposite in2="hardAlpha" operator="out"/>
<feColorMatrix type="matrix" values="0 0 0 0 0 0 0 0 0 0 0 0 0 0 0 0 0 0 0.25 0"/>
<feBlend mode="normal" in2="BackgroundImageFix" result="effect1_dropShadow_764_259"/>
<feBlend mode="normal" in="SourceGraphic" in2="effect1_dropShadow_764_259" result="shape"/>
</filter>
<filter id="filter6_d_764_259" x="608.59" y="25.9033" width="32.3214" height="20.421" filterUnits="userSpaceOnUse" color-interpolation-filters="sRGB">
<feFlood flood-opacity="0" result="BackgroundImageFix"/>
<feColorMatrix in="SourceAlpha" type="matrix" values="0 0 0 0 0 0 0 0 0 0 0 0 0 0 0 0 0 0 127 0" result="hardAlpha"/>
<feOffset dy="4"/>
<feGaussianBlur stdDeviation="2"/>
<feComposite in2="hardAlpha" operator="out"/>
<feColorMatrix type="matrix" values="0 0 0 0 0 0 0 0 0 0 0 0 0 0 0 0 0 0 0.25 0"/>
<feBlend mode="normal" in2="BackgroundImageFix" result="effect1_dropShadow_764_259"/>
<feBlend mode="normal" in="SourceGraphic" in2="effect1_dropShadow_764_259" result="shape"/>
</filter>
<filter id="filter7_d_764_259" x="567.55" y="30.0463" width="46.795" height="21.1298" filterUnits="userSpaceOnUse" color-interpolation-filters="sRGB">
<feFlood flood-opacity="0" result="BackgroundImageFix"/>
<feColorMatrix in="SourceAlpha" type="matrix" values="0 0 0 0 0 0 0 0 0 0 0 0 0 0 0 0 0 0 127 0" result="hardAlpha"/>
<feOffset dy="4"/>
<feGaussianBlur stdDeviation="2"/>
<feComposite in2="hardAlpha" operator="out"/>
<feColorMatrix type="matrix" values="0 0 0 0 0 0 0 0 0 0 0 0 0 0 0 0 0 0 0.25 0"/>
<feBlend mode="normal" in2="BackgroundImageFix" result="effect1_dropShadow_764_259"/>
<feBlend mode="normal" in="SourceGraphic" in2="effect1_dropShadow_764_259" result="shape"/>
</filter>
<filter id="filter8_d_764_259" x="688" y="0" width="68" height="68" filterUnits="userSpaceOnUse" color-interpolation-filters="sRGB">
<feFlood flood-opacity="0" result="BackgroundImageFix"/>
<feColorMatrix in="SourceAlpha" type="matrix" values="0 0 0 0 0 0 0 0 0 0 0 0 0 0 0 0 0 0 127 0" result="hardAlpha"/>
<feOffset dy="2"/>
<feGaussianBlur stdDeviation="2"/>
<feComposite in2="hardAlpha" operator="out"/>
<feColorMatrix type="matrix" values="0 0 0 0 0 0 0 0 0 0 0 0 0 0 0 0 0 0 0.25 0"/>
<feBlend mode="normal" in2="BackgroundImageFix" result="effect1_dropShadow_764_259"/>
<feBlend mode="normal" in="SourceGraphic" in2="effect1_dropShadow_764_259" result="shape"/>
</filter>
<filter id="filter9_d_764_259" x="690.805" y="0.162231" width="62.2702" height="67.7634" filterUnits="userSpaceOnUse" color-interpolation-filters="sRGB">
<feFlood flood-opacity="0" result="BackgroundImageFix"/>
<feColorMatrix in="SourceAlpha" type="matrix" values="0 0 0 0 0 0 0 0 0 0 0 0 0 0 0 0 0 0 127 0" result="hardAlpha"/>
<feOffset dy="2"/>
<feGaussianBlur stdDeviation="2"/>
<feComposite in2="hardAlpha" operator="out"/>
<feColorMatrix type="matrix" values="0 0 0 0 0 0 0 0 0 0 0 0 0 0 0 0 0 0 0.25 0"/>
<feBlend mode="normal" in2="BackgroundImageFix" result="effect1_dropShadow_764_259"/>
<feBlend mode="normal" in="SourceGraphic" in2="effect1_dropShadow_764_259" result="shape"/>
</filter>
<linearGradient id="paint0_linear_764_259" x1="304" y1="-17.9997" x2="362.113" y2="85.3113" gradientUnits="userSpaceOnUse">
<stop stop-color="#2383AE"/>
<stop offset="1" stop-color="#6DD7B9"/>
</linearGradient>
<clipPath id="clip0_764_259">
<rect width="50" height="60" fill="white" transform="translate(206 2)"/>
</clipPath>
<clipPath id="clip1_764_259">
<rect width="50" height="60" fill="white" transform="translate(108 2)"/>
</clipPath>
<clipPath id="clip2_764_259">
<rect width="64" height="60" fill="white" transform="translate(304 2)"/>
</clipPath>
<clipPath id="clip3_764_259">
<rect width="65" height="60" fill="white" transform="translate(416 2)"/>
</clipPath>
<clipPath id="clip4_764_259">
<rect width="60" height="60" fill="white" transform="translate(692 2)"/>
</clipPath>
</defs>
</svg>
